<?xml version="1.0" encoding="UTF-8" standalone="no"?>
<!DOCTYPE svg PUBLIC "-//W3C//DTD SVG 1.1//EN" "http://www.w3.org/Graphics/SVG/1.1/DTD/svg11.dtd">
<svg width="100%" height="100%" viewBox="0 0 600 650" version="1.1" xmlns="http://www.w3.org/2000/svg" xmlns:xlink="http://www.w3.org/1999/xlink" xml:space="preserve" xmlns:serif="http://www.serif.com/" style="fill-rule:evenodd;clip-rule:evenodd;stroke-linecap:round;stroke-linejoin:round;stroke-miterlimit:1.5;">
    <g transform="matrix(1,0,0,1,-15.5658,42.4435)">
        <g transform="matrix(2.37893,0,0,1.31507,-631.702,-62.9292)">
            <path d="M400.099,118.407C467.937,117.47 504.879,180.097 499.919,275.54C494.03,388.871 476.828,416.421 434.985,407.503C423.381,405.031 418.591,424.734 403.917,425.178C394.803,425.454 384.764,414.722 377.229,415.21C333.563,418.037 320.3,410.034 305.425,331.963C304.57,327.476 302.191,309.307 298.583,296.467C290.997,269.469 302.672,259.47 302.654,234.619C302.613,179.504 333.409,119.327 400.099,118.407Z" style="fill:none;stroke:rgb(105,186,201);stroke-width:1.27px;"/>
        </g>
        <path d="M383.447,471.05C383.434,470.953 383.405,470.756 383.366,470.626C383.279,470.344 383.156,470.044 383.026,469.737C382.696,468.956 382.338,468.132 382.205,467.381C382.077,466.658 382.138,465.983 382.434,465.391C384.393,461.473 388.733,457.299 392.037,453.994C392.546,453.485 393.44,452.994 394.635,452.577C396.96,451.765 400.567,451.117 404.177,450.474C407.164,449.942 410.153,449.412 412.365,448.771C413.606,448.412 414.582,448.068 415.048,447.603C419.633,443.017 424.129,437.822 427.603,430.875C429.322,427.436 427.543,423.868 425.21,420.54C422.567,416.769 419.122,413.3 417.802,410.659C417.631,410.317 417.037,409.833 416.365,409.222C415.045,408.02 413.412,406.525 412.628,405.136C411.804,403.675 411.783,402.288 412.917,401.155C415.716,398.356 419.423,396.712 423.496,395.534C427.377,394.412 431.593,393.708 435.599,392.722C443.121,390.87 449.932,388.041 451.787,378.767C452.585,374.775 454.633,369.165 455.647,363.827C456.281,360.489 456.523,357.264 455.661,354.677C455.512,354.229 455.141,353.798 454.646,353.348C453.694,352.483 452.298,351.63 450.649,350.785C443.809,347.282 432.81,344.077 429,342.172C426.938,341.141 426.321,339.067 426.552,336.694C426.828,333.851 428.355,330.57 428.815,329.19C431.865,320.041 441.45,310.429 451.409,307.939C452.062,307.776 452.724,308.173 452.887,308.826C453.051,309.479 452.653,310.142 452,310.305C442.795,312.607 433.948,321.504 431.129,329.962C430.701,331.245 429.237,334.284 428.979,336.93C428.854,338.218 428.972,339.431 430.091,339.991C433.904,341.897 444.914,345.108 451.761,348.615C453.632,349.573 455.205,350.561 456.286,351.543C457.147,352.325 457.715,353.128 457.975,353.906C458.953,356.839 458.762,360.496 458.043,364.282C457.028,369.628 454.978,375.247 454.179,379.246C452.098,389.65 444.621,393.013 436.182,395.09C432.207,396.068 428.024,396.764 424.173,397.877C420.514,398.936 417.156,400.365 414.642,402.88C414.446,403.075 414.48,403.314 414.573,403.56C414.713,403.934 414.974,404.317 415.285,404.706C416.304,405.978 417.856,407.245 418.84,408.191C419.406,408.735 419.809,409.22 419.983,409.568C421.538,412.678 426.124,416.937 428.712,421.501C430.657,424.93 431.507,428.52 429.784,431.965C426.181,439.172 421.529,444.57 416.772,449.327C416.257,449.842 415.36,450.337 414.162,450.758C411.827,451.579 408.216,452.232 404.605,452.875C401.617,453.407 398.63,453.935 396.424,454.569C395.189,454.924 394.22,455.26 393.761,455.719C390.63,458.85 386.472,462.768 384.615,466.481C384.473,466.766 384.622,467.106 384.743,467.469C384.972,468.157 385.329,468.873 385.568,469.526C386.122,471.045 386.002,472.317 384.815,473.067C384.246,473.427 383.492,473.257 383.133,472.688C382.787,472.141 382.93,471.425 383.447,471.05Z" style="fill:rgb(105,186,201);"/>
        <path d="M387.507,339.952C384.377,336.72 380.441,332.151 378.297,327.071C375.773,321.088 375.651,314.419 381.81,308.26C382.739,307.331 384.475,307.008 386.437,306.955C387.602,306.923 388.852,306.952 389.966,306.83C390.805,306.737 391.566,306.6 392.037,306.129C395.312,302.854 398.464,298.849 401.838,295.476C402.461,294.853 403.351,293.338 404.36,291.477C406.901,286.796 410.021,280.009 411.109,278.237C411.373,277.807 411.615,277.564 411.744,277.471C412.029,277.265 412.297,277.222 412.501,277.222C413.064,277.222 413.424,277.479 413.659,277.853C413.812,278.098 413.942,278.5 413.832,279.037C413.661,279.87 412.343,282.09 412.027,282.613C411.986,282.712 411.931,282.806 411.862,282.894C411.643,283.173 411.405,283.307 411.19,283.364C409.811,286.154 408.05,289.791 406.504,292.641C405.345,294.776 404.277,296.486 403.562,297.201C400.189,300.574 397.037,304.578 393.761,307.854C393.184,308.431 392.403,308.816 391.482,309.041C390.372,309.313 389.033,309.355 387.706,309.373C386.732,309.386 385.766,309.387 384.931,309.502C384.354,309.581 383.845,309.674 383.534,309.984C378.252,315.267 378.379,320.991 380.544,326.122C382.825,331.526 387.28,336.294 390.352,339.367C390.939,339.953 391.03,340.504 390.977,340.904C392.735,341.586 394.158,342.578 394.842,343.945C396.538,347.337 396.229,352.251 395.873,356.083C395.743,357.488 395.613,358.733 395.612,359.665C395.612,360.061 395.6,360.374 395.694,360.564C395.819,360.814 396.115,360.954 396.458,361.103C397.028,361.349 397.74,361.518 398.513,361.65C401.182,362.104 404.492,362.111 405.979,362.483C409.478,363.358 412.776,365.264 415.925,367.334C418.915,369.299 421.767,371.41 424.552,372.802C425.154,373.103 425.398,373.836 425.097,374.438C424.796,375.04 424.063,375.285 423.461,374.984C420.598,373.553 417.659,371.393 414.585,369.372C411.669,367.455 408.629,365.66 405.387,364.849C403.671,364.42 399.498,364.492 396.743,363.765C395.154,363.345 393.99,362.609 393.513,361.655C393.342,361.312 393.221,360.816 393.186,360.184C393.13,359.151 393.281,357.62 393.444,355.857C393.762,352.444 394.171,348.057 392.661,345.036C392.138,343.99 390.875,343.411 389.464,342.954C388.805,342.741 388.11,342.565 387.411,342.414C387.107,342.404 386.789,342.386 386.461,342.36C383.595,342.133 379.887,341.427 379.887,341.427C379.296,341.314 378.876,340.788 378.897,340.187C378.918,339.586 379.374,339.09 379.971,339.018C379.971,339.018 381.71,338.838 382.542,339.046C383.738,339.345 385.602,339.571 387.507,339.952Z" style="fill:rgb(105,186,201);"/>
        <path d="M413.949,434.931C413.998,435.019 414.038,435.115 414.065,435.217C414.148,435.527 414.177,435.679 414.18,435.702C414.263,436.39 413.857,436.694 413.763,436.775C413.538,436.968 413.283,437.06 413.004,437.068C412.774,437.075 412.423,437.041 412.089,436.694C412.072,436.677 411.907,436.526 411.79,436.175C411.697,435.893 411.296,434.608 410.793,433.428C410.516,432.781 410.234,432.156 409.934,431.856C407.493,429.415 404.715,426.682 401.126,425.785C394.61,424.156 384.637,420.843 378.878,416.232C375.704,413.69 373.799,410.725 374.014,407.499C374.223,404.381 376.46,400.858 381.996,397.168C382.556,396.794 383.313,396.946 383.687,397.506C384.06,398.066 383.909,398.824 383.349,399.197C378.718,402.284 376.622,405.053 376.448,407.662C376.281,410.163 377.942,412.357 380.403,414.328C385.914,418.741 395.482,421.86 401.717,423.419C405.741,424.425 408.921,427.394 411.659,430.131C412.014,430.487 412.401,431.104 412.747,431.828C413.221,432.823 413.707,434.211 413.949,434.931Z" style="fill:rgb(105,186,201);"/>
        <path d="M387.051,380.041C383.547,378.649 373.022,376.529 366.086,374.452C363.392,373.646 361.265,372.92 360.524,372.179C355.305,366.959 342.257,362.403 334.906,359.952C334.267,359.74 333.576,360.085 333.363,360.724C333.15,361.362 333.496,362.053 334.134,362.266C341.197,364.621 353.785,368.889 358.799,373.903C359.686,374.79 362.162,375.823 365.386,376.789C372.254,378.846 382.681,380.929 386.15,382.308C386.776,382.556 387.485,382.25 387.734,381.625C387.982,380.999 387.676,380.289 387.051,380.041Z" style="fill:rgb(105,186,201);"/>
        <path d="M281.413,270.048C278.661,271.236 275.717,274.082 273.408,275.621C270.409,277.62 267.462,282.173 265.398,287.08C263.335,291.981 262.142,297.255 262.849,300.787C263.462,303.852 264.886,308.318 267.498,310.277C272.606,314.109 282.86,319.761 288.414,326.42C292.448,331.255 294.087,336.602 290.366,342.184C288.868,344.43 287.741,345.808 286.23,346.759C284.732,347.703 282.836,348.236 279.722,348.681C275.996,349.213 272.264,349.119 268.471,349.119C267.798,349.119 267.251,348.573 267.251,347.899C267.251,347.226 267.798,346.68 268.471,346.68C272.147,346.68 275.766,346.782 279.377,346.266C282.025,345.888 283.656,345.498 284.93,344.696C286.193,343.901 287.086,342.707 288.336,340.831C291.376,336.272 289.836,331.931 286.541,327.982C281.105,321.465 271.034,315.978 266.034,312.228C262.995,309.948 261.17,304.833 260.457,301.265C259.678,297.372 260.876,291.536 263.149,286.134C265.421,280.736 268.756,275.791 272.055,273.591C274.701,271.827 278.182,268.521 281.295,267.483C281.829,267.305 282.257,267.352 282.597,267.479C282.992,267.626 283.304,267.901 283.524,268.284C283.828,268.817 283.866,269.979 283.869,270.379C283.918,270.678 283.857,270.996 283.672,271.265C283.278,271.841 282.779,271.827 282.507,271.793C282.3,271.767 281.471,271.588 281.432,270.594L281.413,270.048ZM282.234,269.436C282.086,269.487 281.91,269.581 281.747,269.773L281.748,269.774C281.883,269.619 282.051,269.505 282.234,269.436ZM282.705,269.358C282.903,269.364 283.102,269.418 283.282,269.524C283.101,269.41 282.907,269.359 282.705,269.358Z" style="fill:rgb(105,186,201);"/>
        <path d="M234.728,325.351C234.167,325.309 233.691,324.879 233.612,324.299C233.491,323.408 233.866,322.984 234.052,322.824C234.407,322.518 234.96,322.298 235.652,322.748C235.998,322.973 236.783,324.021 237.649,325.091C237.989,325.511 238.35,325.93 238.712,326.259C238.926,326.453 239.112,326.637 239.307,326.676C244.776,327.769 248.894,329.631 250.878,335.582C251.615,337.793 251.063,339.842 249.842,341.821C248.788,343.528 247.215,345.189 245.745,346.89C243.256,349.769 240.931,352.756 243.492,356.598C244.495,358.103 247.306,360.246 250.26,362.116C253.219,363.989 256.331,365.591 258.018,365.872C259.975,366.198 261.35,365.698 262.774,365.108C263.908,364.638 265.068,364.112 266.47,363.761C274.712,361.701 284.446,364.151 292.76,364.151C293.433,364.151 293.979,364.698 293.979,365.371C293.979,366.044 293.433,366.59 292.76,366.59C284.632,366.59 275.118,364.114 267.062,366.128C265.438,366.533 264.172,367.208 262.857,367.698C261.319,368.272 259.727,368.63 257.617,368.278C255.741,367.965 252.245,366.259 248.955,364.177C245.66,362.09 242.582,359.63 241.462,357.951C238.15,352.983 240.681,349.019 243.899,345.295C245.282,343.696 246.776,342.145 247.766,340.539C248.589,339.206 249.061,337.843 248.564,336.354C246.912,331.398 243.383,329.978 238.829,329.067C238.045,328.911 237.092,328.176 236.251,327.219C235.754,326.653 235.14,325.879 234.728,325.351Z" style="fill:rgb(105,186,201);"/>
        <path d="M280.765,385.386C279.699,388.437 280.622,392.856 281.559,395.666C282.055,397.153 283.247,399.071 284.624,401.223C286.832,404.67 289.511,408.665 290.95,412.43C292.741,417.114 292.649,421.454 288.323,424.338C287.763,424.712 287.005,424.56 286.632,424C286.258,423.44 286.41,422.682 286.97,422.309C290.222,420.141 290.019,416.822 288.672,413.301C287.288,409.682 284.692,405.852 282.57,402.538C281.062,400.182 279.788,398.066 279.245,396.437C278.061,392.884 277.111,387.124 278.885,383.575C279.097,383.151 279.467,382.861 280.016,382.783C280.258,382.75 280.573,382.768 280.915,382.853C281.222,382.929 281.575,383.065 281.865,383.176C282.272,383.136 282.689,383.301 282.955,383.649C283.46,384.308 283.223,384.829 283.106,385.051C282.95,385.349 282.549,385.847 281.721,385.693C281.583,385.667 281.131,385.514 280.765,385.386ZM280.974,385.069L280.978,385.074L280.965,385.054L280.974,385.069ZM280.936,385.008L280.939,385.014L280.932,385.001L280.936,385.008Z" style="fill:rgb(105,186,201);"/>
        <path d="M271.796,430.018C271.989,429.966 272.422,429.852 272.789,429.78C273.872,429.566 275.328,429.51 276.768,430.374C289.324,437.908 310.044,441.113 323.275,433.763C323.863,433.436 324.606,433.648 324.933,434.237C325.26,434.825 325.048,435.568 324.459,435.895C310.537,443.629 288.726,440.393 275.514,432.466C274.218,431.688 272.892,432.268 272.326,432.404C271.527,432.596 271.025,432.29 270.829,432.094C270.354,431.617 270.356,430.844 270.833,430.369C271.096,430.106 271.451,429.989 271.796,430.018ZM272.059,430.07C272.241,430.127 272.413,430.227 272.557,430.372C272.446,430.26 272.289,430.128 272.059,430.07Z" style="fill:rgb(105,186,201);"/>
        <path d="M264.111,449.673C256.704,443.278 250.138,437.397 243.319,430.578C241.074,428.333 237.694,420.823 236.866,415.054C236.476,412.334 236.696,409.982 237.627,408.585C238.744,406.909 242.267,404.046 244.522,401.246C245.175,400.434 245.717,399.635 246.004,398.873C246.199,398.359 246.287,397.876 246.074,397.449C243.266,391.834 239.798,389.178 236.663,386.697C234.1,384.667 231.752,382.735 230.026,379.665C228.309,376.61 227.195,372.413 227.195,365.797C227.195,365.124 227.742,364.577 228.415,364.577C229.088,364.577 229.634,365.124 229.634,365.797C229.634,371.837 230.585,375.681 232.152,378.47C233.71,381.241 235.864,382.953 238.177,384.784C241.544,387.45 245.24,390.328 248.255,396.358C248.963,397.774 248.618,399.501 247.497,401.285C245.499,404.465 240.95,407.999 239.657,409.938C239.327,410.432 239.183,411.117 239.13,411.915C239.033,413.375 239.285,415.167 239.734,417.039C240.877,421.809 243.297,427.106 245.044,428.853C252.766,436.575 260.162,443.085 268.838,450.522C269.781,451.33 273.239,454.967 274.414,457.891C275.103,459.605 275.003,461.128 274.02,462.111C273.622,462.51 273.188,462.678 272.755,462.705C272.357,462.729 271.936,462.628 271.515,462.361C271.052,462.067 270.54,461.505 270.053,460.736C268.559,458.375 267.023,453.766 266.364,452.409C265.056,451.858 263.783,452.032 262.58,452.594C261.086,453.293 259.698,454.55 258.443,455.907C256.534,457.969 254.933,460.277 253.787,461.554C253.06,462.364 252.388,462.806 251.926,462.907C251.269,463.051 250.618,462.634 250.474,461.977C250.337,461.348 250.711,460.726 251.318,460.547C251.389,460.481 252.018,459.89 252.458,459.356C253.564,458.014 254.995,456.042 256.652,454.25C258.824,451.904 261.386,449.954 264.111,449.673ZM270.375,455.856C270.713,456.668 271.072,457.483 271.439,458.215C271.746,458.827 272.055,459.377 272.363,459.799C272.385,459.83 272.409,459.861 272.434,459.891C272.429,459.818 272.418,459.741 272.405,459.662C272.312,459.075 272.015,458.418 271.631,457.742C271.272,457.11 270.835,456.467 270.375,455.856Z" style="fill:rgb(105,186,201);"/>
        <path d="M198.277,431.682C198.214,431.57 198.133,431.436 198.054,431.33C197.786,430.971 197.422,430.574 196.994,430.148C194.793,427.956 190.989,425.112 188.521,423.023C187.337,422.02 186.444,421.157 186.066,420.591C183.415,416.615 183.485,412.443 184.497,408.339C185.428,404.561 187.181,400.85 188.028,397.46C189.422,391.885 192.764,388.601 196.826,386.031C200.625,383.628 205.077,381.879 208.989,379.27C211.211,377.789 215.184,376.578 217.721,377.424C218.058,377.536 218.868,377.663 219.365,377.735C219.467,377.615 219.595,377.513 219.745,377.438C220.346,377.136 221.08,377.379 221.382,377.98C221.624,378.463 221.594,378.864 221.489,379.176C221.341,379.616 220.971,380.036 220.272,380.18C219.494,380.342 217.757,380.006 216.95,379.737C215.02,379.094 212.032,380.173 210.342,381.3C206.413,383.919 201.944,385.679 198.13,388.092C194.578,390.339 191.613,393.177 190.395,398.052C189.548,401.439 187.795,405.147 186.865,408.923C186.014,412.374 185.866,415.894 188.096,419.238C188.58,419.964 190.127,421.212 191.922,422.663C194.887,425.058 198.508,427.908 199.956,429.801C200.474,430.478 200.748,431.095 200.811,431.573C200.893,432.204 200.712,432.723 200.301,433.135C197.83,435.605 194.556,435.165 191.382,434.42C190.079,434.114 188.803,433.773 187.648,433.722C186.783,433.683 185.994,433.805 185.386,434.413C184.364,435.436 179.93,439.16 179.066,439.895L178.955,439.99C178.738,440.189 178.449,440.31 178.132,440.31C177.669,440.31 177.383,440.097 177.194,439.869C177.13,439.792 176.508,438.992 177.269,438.228C177.281,438.216 177.356,438.148 177.487,438.036C178.33,437.319 182.663,433.687 183.662,432.688C185.326,431.024 187.686,431.092 190.283,431.66C191.832,431.999 193.473,432.49 195.039,432.576C196.201,432.639 197.32,432.467 198.277,431.682Z" style="fill:rgb(105,186,201);"/>
        <path d="M140.852,309.6C140.533,309.511 140.307,309.447 140.248,309.427C140.164,309.399 139.867,309.249 139.454,308.948C138.452,308.219 136.112,306.372 134.544,305.054C133.828,304.452 133.266,303.951 133.028,303.694C132.861,303.515 132.769,303.364 132.725,303.276C130.983,299.793 130.686,297.155 131.103,294.994C131.521,292.827 132.675,291.114 133.985,289.498C135.454,287.686 137.161,286.025 137.746,283.685C139.47,276.79 139.786,270.721 144.771,264.073C145.889,262.583 147.337,261.502 148.76,260.483C149.979,259.609 151.182,258.793 152.015,257.682C152.383,257.192 152.911,255.964 153.464,254.741C154.112,253.309 154.789,251.882 155.258,251.294C155.706,250.73 156.212,250.581 156.535,250.577C156.907,250.573 157.256,250.697 157.555,251.02C157.752,251.234 158.046,251.788 158.046,252.874C158.046,253.547 157.499,254.093 156.826,254.093C156.718,254.093 156.614,254.079 156.515,254.053C156.238,254.591 155.925,255.217 155.686,255.746C155.043,257.167 154.393,258.576 153.967,259.145C152.989,260.448 151.611,261.44 150.181,262.465C148.955,263.344 147.686,264.252 146.722,265.537C141.967,271.878 141.756,277.699 140.112,284.277C139.438,286.971 137.572,288.947 135.88,291.034C134.82,292.342 133.836,293.702 133.498,295.456C133.163,297.191 133.478,299.287 134.846,302.063C134.993,302.2 135.551,302.715 136.113,303.186C137.793,304.598 140.386,306.641 141.122,307.142C141.78,307.309 144.819,307.945 145.755,308.514C146.259,308.821 146.481,309.214 146.557,309.509C146.671,309.955 146.606,310.413 146.183,310.837C145.959,311.061 145.6,311.287 145.095,311.454C144.382,311.69 143.251,311.855 141.893,311.968C139.42,312.174 136.125,312.236 133.427,312.483C131.815,312.63 130.434,312.815 129.673,313.196C126.13,314.968 124.175,318.577 123.43,322.45C122.666,326.422 123.169,330.697 124.679,333.718C125.439,335.238 125.338,337.264 124.913,339.441C124.397,342.084 123.371,344.986 123.919,347.178C126.709,358.337 128.363,370.067 131.163,381.268C132.76,387.654 136.322,392.573 140.643,396.894C142.333,398.584 142.894,400.854 143.318,403.189C143.663,405.087 143.894,407.032 145.018,408.53C154.244,420.831 159.986,431.493 172.417,439.78C174.216,440.979 175.502,443.558 176.764,446.257C177.832,448.539 178.888,450.916 180.568,452.177C181.661,452.996 183.19,453.295 184.748,453.494C186.557,453.725 188.414,453.794 189.877,454.087C190.868,454.285 191.571,454.994 192.096,455.949C192.356,456.42 192.576,456.953 192.823,457.43C192.953,457.68 193.068,457.923 193.251,458.07C193.294,458.069 193.381,458.067 193.439,458.058C193.637,458.027 193.854,457.961 194.086,457.876C194.838,457.603 195.705,457.153 196.589,456.739C197.848,456.151 199.145,455.652 200.256,455.604C201.26,455.561 202.147,455.841 202.858,456.551C203.395,457.089 203.609,458.018 203.645,459.054C203.657,459.425 203.658,459.81 203.706,460.162C203.72,460.268 203.739,460.369 203.768,460.463C203.782,460.508 203.776,460.563 203.819,460.584C206.167,461.758 209.345,462.108 212.487,462.565C215.956,463.069 219.381,463.703 221.847,465.347C222.787,465.974 223.466,466.888 224.164,467.803C224.669,468.464 225.181,469.135 225.977,469.533C226.948,470.018 228.347,469.961 229.763,469.887C231.505,469.797 233.275,469.629 234.581,469.847C239.091,470.598 251.087,474.338 255.646,475.858C256.532,476.153 257.112,476.853 257.534,477.716C257.701,478.056 257.844,478.421 258.002,478.76C258.109,478.989 258.168,479.236 258.363,479.334C258.86,479.582 259.819,479.703 260.946,479.822C262.923,480.031 265.359,480.141 267.148,480.365C268.194,480.496 269.046,480.681 269.552,480.91C270.018,481.12 270.309,481.404 270.471,481.67C270.821,482.245 270.638,482.996 270.063,483.346C269.561,483.652 268.924,483.55 268.538,483.136C268.351,483.085 267.539,482.872 266.846,482.785C264.761,482.524 261.798,482.418 259.71,482.13C258.65,481.983 257.787,481.773 257.272,481.515C256.569,481.163 256.083,480.449 255.707,479.603C255.567,479.289 255.436,478.958 255.277,478.657C255.171,478.457 255.086,478.243 254.875,478.172C250.395,476.679 238.612,472.991 234.18,472.252C232.759,472.016 230.732,472.326 228.869,472.362C227.357,472.391 225.941,472.241 224.887,471.714C223.742,471.142 222.952,470.234 222.226,469.283C221.693,468.586 221.211,467.855 220.494,467.377C218.298,465.913 215.225,465.428 212.136,464.979C208.721,464.482 205.281,464.042 202.728,462.766C201.789,462.296 201.368,461.369 201.261,460.245C201.212,459.737 201.225,459.187 201.184,458.696C201.171,458.544 201.115,458.303 201.102,458.246C200.719,457.897 200.18,458.016 199.605,458.169C198.616,458.434 197.541,458.988 196.542,459.464C195.579,459.922 194.67,460.311 193.932,460.448C193.131,460.597 192.459,460.476 191.944,460.133C191.293,459.699 190.813,458.903 190.401,458.028C190.233,457.672 190.071,457.304 189.878,456.982C189.745,456.761 189.638,456.527 189.398,456.479C187.68,456.135 185.405,456.113 183.324,455.746C181.731,455.465 180.246,454.984 179.105,454.128C177.144,452.657 175.801,449.954 174.555,447.29C173.503,445.042 172.562,442.808 171.064,441.809C158.388,433.359 152.474,422.537 143.067,409.993C141.719,408.197 141.331,405.9 140.918,403.624C140.584,401.785 140.251,399.95 138.919,398.618C134.29,393.99 130.507,388.7 128.797,381.859C125.997,370.658 124.343,358.929 121.553,347.769C121.026,345.661 121.638,342.971 122.222,340.369C122.478,339.228 122.719,338.107 122.794,337.075C122.855,336.226 122.817,335.448 122.498,334.809C120.779,331.371 120.165,326.51 121.035,321.989C121.924,317.369 124.354,313.128 128.583,311.014C129.308,310.652 130.465,310.38 131.865,310.199C134.486,309.862 138.046,309.791 140.852,309.6Z" style="fill:rgb(105,186,201);"/>
        <path d="M135.422,258.372C135.334,258.168 134.86,257.046 134.655,256.262C134.523,255.761 134.464,255.284 134.495,254.918C134.556,254.206 134.906,253.735 135.401,253.487C140.035,251.17 144.792,247.295 150.006,245.34C150.636,245.104 151.34,245.423 151.576,246.054C151.812,246.684 151.493,247.387 150.862,247.624C145.91,249.481 141.388,253.117 136.977,255.42C137.009,255.585 137.052,255.788 137.1,255.938C137.312,256.613 137.617,257.285 137.708,257.519C138.139,258.625 137.087,259.176 136.98,259.211C136.34,259.422 135.65,259.074 135.44,258.434C135.433,258.414 135.427,258.393 135.422,258.372ZM135.46,257.617C135.586,257.287 135.855,257.014 136.217,256.895C135.906,256.997 135.612,257.201 135.46,257.617Z" style="fill:rgb(105,186,201);"/>
        <path d="M157.326,184.76C157.234,184.302 157.11,183.601 157.112,183.19C157.116,182.558 157.324,182.045 157.668,181.701C159.706,179.663 163.098,177.778 165.609,176.384C174.369,171.517 182.38,166 191.741,162.255C202.535,157.938 211.252,155.578 220.39,147.962C223.63,145.262 226.171,141.747 228.721,138.375C231.412,134.816 234.119,131.415 237.539,129.135C240.817,126.95 245.494,127.235 250.167,127.983C254.335,128.649 258.485,129.685 261.357,128.967C270.364,126.715 280.209,122.538 289.777,122.538C290.45,122.538 290.996,123.085 290.996,123.758C290.996,124.431 290.45,124.977 289.777,124.977C280.403,124.977 270.772,129.127 261.948,131.333C258.829,132.113 254.31,131.115 249.782,130.391C245.759,129.747 241.714,129.283 238.892,131.164C235.69,133.299 233.186,136.514 230.666,139.846C228.004,143.366 225.333,147.018 221.952,149.836C212.596,157.633 203.697,160.1 192.647,164.52C183.383,168.226 175.462,173.699 166.793,178.516C164.53,179.773 161.475,181.429 159.566,183.257C159.587,183.44 159.634,183.827 159.684,184.058C159.83,184.738 159.886,185.361 159.803,185.673C159.672,186.166 159.37,186.462 158.982,186.618C158.728,186.72 158.374,186.785 157.907,186.618C157.273,186.391 156.942,185.692 157.169,185.059C157.208,184.95 157.261,184.849 157.326,184.76Z" style="fill:rgb(105,186,201);"/>
        <path d="M269.365,177.745C269.306,177.446 269.359,177.126 269.537,176.85C270.18,175.854 271.029,176.187 271.23,176.286C271.492,176.415 271.873,176.692 271.921,177.325C271.933,177.476 271.894,177.862 271.751,178.342C271.529,179.089 271.081,180.207 270.764,180.683C269.524,182.542 267.172,184.209 265.062,184.209C265.082,184.209 265.122,184.206 265.122,184.206C265.122,184.206 264.401,184.236 264.09,184.08C260.819,182.444 258.062,180.552 255.266,179.001C251.328,176.818 247.308,175.341 241.438,176.515C238.588,177.085 236.549,179.363 234.504,181.6C232.111,184.216 229.718,186.797 226.58,187.581C225.182,187.931 224.177,187.877 223.397,187.636C222.551,187.374 221.939,186.887 221.403,186.292C221.083,185.938 220.793,185.541 220.466,185.16C220.117,184.754 219.718,184.359 219.081,184.146C216.397,183.251 212.471,184.314 208.425,186.061C202.028,188.824 195.385,193.455 192.631,196.209C192.155,196.685 191.382,196.685 190.906,196.209C190.43,195.733 190.43,194.96 190.906,194.485C193.795,191.596 200.749,186.719 207.458,183.822C212.149,181.796 216.74,180.795 219.852,181.832C221.285,182.31 222.069,183.25 222.804,184.168C223.136,184.582 223.436,185.003 223.924,185.231C224.399,185.453 225.033,185.454 225.989,185.215C228.685,184.541 230.648,182.202 232.704,179.954C235.108,177.325 237.609,174.793 240.96,174.123C247.531,172.809 252.04,174.423 256.449,176.868C259.147,178.365 261.807,180.186 264.939,181.776C264.985,181.772 265.028,181.77 265.062,181.77C266.45,181.77 267.919,180.553 268.734,179.33C268.923,179.047 269.204,178.235 269.365,177.745ZM271.537,178.242L271.534,178.246L271.537,178.242Z" style="fill:rgb(105,186,201);"/>
        <path d="M224.211,194.311C224.766,195.879 225.532,199.122 224.485,203.313C224.074,204.956 222.718,206.635 221.42,208.276C220.868,208.973 220.334,209.666 219.942,210.357C219.634,210.9 219.407,211.431 219.407,211.966C219.407,212.639 218.861,213.185 218.188,213.185C217.515,213.185 216.968,212.639 216.968,211.966C216.968,210.566 217.733,209.117 218.793,207.689C220.024,206.029 221.702,204.389 222.118,202.721C223.373,197.703 221.671,194.532 221.565,194.305C221.239,193.606 221.617,193.148 221.658,193.088C221.881,192.762 222.19,192.582 222.594,192.558C222.736,192.55 223.143,192.512 223.547,192.932C223.565,192.952 223.695,193.13 223.969,193.493C224.153,193.737 224.231,194.028 224.211,194.311Z" style="fill:rgb(105,186,201);"/>
        <path d="M222.539,237.115C222.568,237.06 222.601,237.006 222.639,236.954C224.511,234.414 225.389,237.257 224.682,238.294C224.62,238.386 224.163,239.21 224.093,239.337C224.063,241.196 223.201,244.705 222.8,247.108C222.144,251.042 220.324,253.92 218.905,256.85C217.648,259.444 216.742,262.089 217.667,265.788C218.394,268.698 219.407,271.973 219.407,275.032C219.407,275.349 219.449,275.82 219.512,276.346C219.968,277.512 220.26,278.753 220.26,280.146C220.26,280.978 219.902,281.326 219.812,281.406C219.579,281.612 219.325,281.698 219.071,281.714C218.813,281.73 218.185,281.703 217.842,280.948C217.676,280.584 217.32,278.609 217.118,276.927C216.901,276.417 216.646,275.923 216.377,275.435C215.465,273.787 214.378,272.2 213.647,270.372C211.083,263.963 207.858,260.257 203.945,258.531C197.975,255.898 190.573,257.819 181.994,261.25C179.948,262.069 177.863,262.423 175.864,262.99C174.097,263.491 172.398,264.168 170.898,265.667C170.422,266.143 169.649,266.143 169.174,265.667C168.698,265.192 168.698,264.419 169.174,263.943C170.999,262.117 173.047,261.253 175.198,260.643C177.118,260.099 179.123,259.772 181.088,258.986C190.393,255.264 198.454,253.444 204.929,256.3C209.312,258.233 213.04,262.288 215.911,269.466C216.042,269.792 216.185,270.11 216.336,270.421C216.014,269.036 215.623,267.67 215.3,266.379C214.205,261.998 215.222,258.859 216.71,255.787C218.035,253.051 219.782,250.381 220.394,246.707C220.781,244.383 221.656,240.976 221.656,239.238C221.656,238.97 221.742,238.596 221.917,238.208C222.085,237.837 222.373,237.373 222.539,237.115Z" style="fill:rgb(105,186,201);"/>
        <path d="M209.547,303.154C210.237,301.369 210.871,299.441 212.016,297.438C214.188,293.636 216,289.801 217.563,288.448C218.072,288.008 218.843,288.064 219.283,288.573C219.724,289.082 219.668,289.852 219.159,290.293C217.717,291.541 216.139,295.138 214.133,298.648C213.592,299.595 213.172,300.527 212.807,301.433C217.485,299.371 222.253,298.954 227.989,298.954C228.662,298.954 229.208,299.5 229.208,300.174C229.208,300.847 228.662,301.393 227.989,301.393C221.692,301.393 216.638,301.881 211.503,304.83C211.406,305.066 211.307,305.298 211.203,305.527C210.147,307.856 208.698,309.888 205.579,311.463C205.434,311.56 204.362,312.276 203.889,312.423C203.194,312.639 202.685,312.389 202.411,312.115C202.176,311.88 201.818,311.309 202.216,310.493C202.76,309.375 206.795,305.064 207.229,304.738C208.007,304.154 208.778,303.628 209.547,303.154Z" style="fill:rgb(105,186,201);"/>
        <path d="M288.966,300.541C288.914,300.56 288.569,300.692 288.369,300.799C287.777,301.114 287.192,301.529 287.056,301.616C286.668,301.863 286.369,301.825 286.319,301.823C285.786,301.802 285.496,301.521 285.322,301.23C285.184,301 284.998,300.587 285.291,300.033C285.304,300.009 285.4,299.816 285.729,299.547C285.826,299.467 285.932,299.405 286.043,299.36C286.416,299.116 287.07,298.705 287.593,298.46C288.094,298.227 288.576,298.102 288.925,298.102L297.447,298.102C305.299,298.102 309.372,300.298 316.316,303.77C316.918,304.071 317.162,304.804 316.861,305.406C316.56,306.008 315.827,306.253 315.225,305.952C308.676,302.677 304.853,300.541 297.447,300.541L288.966,300.541Z" style="fill:rgb(105,186,201);"/>
        <path d="M298.689,283.434C299.245,283.032 303.285,280.125 304.572,279.481C306.285,278.624 307.935,278.62 309.62,278.729C311.576,278.857 313.598,279.185 315.891,277.466C316.43,277.062 317.195,277.171 317.598,277.709C318.002,278.248 317.893,279.013 317.355,279.417C314.899,281.259 312.704,281.359 310.584,281.238C308.927,281.142 307.327,280.83 305.663,281.663C304.261,282.363 300.537,285.292 299.631,285.702C298.827,286.066 298.285,285.692 298.092,285.506C297.608,285.039 297.593,284.266 298.061,283.781C298.237,283.598 298.457,283.482 298.689,283.434ZM299.711,283.685L299.734,283.703L299.728,283.698L299.711,283.685ZM299.653,283.639L299.681,283.66L299.668,283.65L299.653,283.639ZM299.596,283.6L299.621,283.617L299.603,283.604L299.596,283.6Z" style="fill:rgb(105,186,201);"/>
        <path d="M315.204,265.797C315.16,265.886 315.105,265.972 315.038,266.051C314.604,266.566 313.834,266.631 313.32,266.197C312.793,265.753 312.726,265.256 312.818,264.816C312.889,264.477 313.148,264.003 313.799,263.681C314.775,263.198 317.49,262.759 319.318,262.669C320.266,262.622 321.012,262.699 321.312,262.811C324.041,263.834 326.131,265.693 328.132,267.682C329.94,269.48 331.671,271.389 333.869,272.708C334.446,273.054 334.634,273.804 334.287,274.381C333.941,274.958 333.191,275.146 332.614,274.8C330.247,273.379 328.36,271.348 326.412,269.411C324.668,267.677 322.875,266.016 320.504,265.114C320.416,265.109 319.883,265.083 319.439,265.105C318.23,265.164 316.028,265.619 315.204,265.797ZM314.951,264.386L314.965,264.4L314.957,264.392L314.951,264.386Z" style="fill:rgb(105,186,201);"/>
        <path d="M415.773,150.281C415.623,150.645 415.3,150.93 414.885,151.013C414.226,151.146 413.582,150.718 413.449,150.058C413.269,149.165 413.531,148.587 413.877,148.226C414.314,147.769 415.159,147.508 416.28,147.855C417.663,148.283 419.778,149.666 421.336,151.225C422.474,152.362 423.294,153.609 423.498,154.626C424.339,158.833 426.228,162.397 427.892,166.046C429.664,169.932 431.191,173.908 431.191,178.728C431.191,179.401 430.645,179.947 429.972,179.947C429.299,179.947 428.752,179.401 428.752,178.728C428.752,174.289 427.305,170.637 425.673,167.058C423.932,163.242 421.986,159.503 421.106,155.104C420.996,154.554 420.532,153.939 419.961,153.315C418.94,152.197 417.52,151.121 416.35,150.522C416.17,150.429 415.96,150.347 415.773,150.281Z" style="fill:rgb(105,186,201);"/>
        <path d="M439.38,237.056C438.954,237.292 438.41,237.259 438.012,236.931C437.492,236.503 437.418,235.733 437.847,235.214C438.14,234.859 438.549,234.632 439.092,234.588C439.637,234.543 440.47,234.762 441.438,235.222C442.867,235.901 444.75,237.093 446.409,237.861C447.232,238.242 447.957,238.573 448.482,238.468C461.485,235.867 461.895,237.326 473.235,230.522C473.813,230.175 474.562,230.363 474.909,230.94C475.255,231.517 475.067,232.267 474.49,232.613C462.787,239.635 462.379,238.176 448.961,240.86C448.337,240.984 447.537,240.89 446.645,240.588C445.073,240.054 443.094,238.861 441.425,237.957C440.688,237.558 439.69,237.172 439.38,237.056Z" style="fill:rgb(105,186,201);"/>
        <path d="M465.36,162.919C467.297,162.566 468.611,163.487 469.512,165.081C470.235,166.359 470.713,168.022 471.033,169.877C472.306,177.266 471.009,187.584 470.529,190.459C470.419,191.123 470.868,191.752 471.532,191.862C472.196,191.973 472.824,191.524 472.935,190.86C473.52,187.353 475.206,173.254 472.498,165.785C471.135,162.024 468.719,159.827 464.922,160.52C464.259,160.641 463.82,161.276 463.941,161.938C464.062,162.601 464.697,163.04 465.36,162.919Z" style="fill:rgb(105,186,201);"/>
        <path d="M478.121,324.68C478.377,325.219 478.204,325.879 477.692,326.217C476.991,326.681 476.514,326.456 476.29,326.34C475.993,326.185 475.753,325.931 475.648,325.531C475.609,325.383 475.627,324.852 475.627,324.852C475.627,324.852 475.626,324.877 475.626,324.889C475.626,324.27 476.064,323.169 476.845,321.936C478.331,319.59 480.958,316.495 481.949,315.504C486.848,310.605 492.919,310.886 499.43,310.886C500.103,310.886 500.65,311.432 500.65,312.105C500.65,312.778 500.103,313.325 499.43,313.325C493.584,313.325 488.072,312.831 483.674,317.229C482.748,318.155 480.295,321.049 478.906,323.241C478.63,323.676 478.399,324.079 478.238,324.43C478.195,324.522 478.153,324.605 478.121,324.68Z" style="fill:rgb(105,186,201);"/>
        <path d="M497.094,330.415C497.696,331.527 499.013,333.144 499.593,334.013C501.752,337.253 504.76,340.065 506.487,343.519C510.926,352.398 513.664,365.451 511.267,375.041C511.103,375.694 510.441,376.092 509.788,375.928C509.135,375.765 508.737,375.103 508.9,374.45C511.171,365.368 508.509,353.018 504.305,344.61C502.623,341.244 499.667,338.522 497.563,335.366C496.792,334.209 494.931,331.831 494.534,330.646C494.3,329.947 494.424,329.399 494.639,329.06C494.903,328.643 495.412,328.223 496.404,328.407C497.065,328.53 497.503,329.166 497.38,329.828C497.338,330.054 497.236,330.254 497.094,330.415Z" style="fill:rgb(105,186,201);"/>
        <path d="M472.374,392.053C472.554,392.296 472.944,392.796 473.326,393.138C475.298,394.905 478.828,397.025 480.962,398.728C482.127,399.658 482.898,400.551 483.116,401.206C483.313,401.797 483.367,402.713 483.32,403.785C483.262,405.105 483.075,406.709 483.057,408.111C483.049,408.779 483.074,409.394 483.198,409.885C483.224,409.988 483.254,410.084 483.292,410.17C483.314,410.221 483.314,410.28 483.357,410.301C484.038,410.642 484.746,410.617 485.458,410.426C486.361,410.184 487.266,409.689 488.159,409.151C489.386,408.411 490.588,407.587 491.711,407.043C492.625,406.6 493.504,406.337 494.317,406.337C494.99,406.337 495.536,406.884 495.536,407.557C495.536,408.23 494.99,408.776 494.317,408.776C493.682,408.776 493.004,409.097 492.276,409.496C491.36,409.998 490.398,410.649 489.418,411.24C487.048,412.668 484.554,413.627 482.266,412.483C481.36,412.03 480.776,410.894 480.652,409.312C480.533,407.788 480.76,405.787 480.86,404.112C480.914,403.223 480.959,402.447 480.802,401.977C480.754,401.831 480.602,401.686 480.424,401.503C479.958,401.023 479.272,400.484 478.483,399.907C476.318,398.323 473.426,396.502 471.699,394.955C470.76,394.114 470.145,393.296 469.939,392.631C469.688,391.818 469.842,391.104 470.444,390.502C471.47,389.476 473.216,389.046 475.202,388.873C476.432,388.767 477.758,388.734 478.989,388.586C480.026,388.46 480.993,388.27 481.709,387.793C483.957,386.294 484.756,383.67 485.252,381.081C485.833,378.05 486.013,375.022 486.883,373.248C487.18,372.643 487.911,372.393 488.515,372.69C489.119,372.986 489.37,373.717 489.073,374.321C488.273,375.954 488.182,378.753 487.648,381.54C487.028,384.769 485.866,387.953 483.062,389.822C481.479,390.878 479.023,391.068 476.651,391.215C475.64,391.278 474.65,391.343 473.787,391.523C473.239,391.638 472.745,391.784 472.374,392.053Z" style="fill:rgb(105,186,201);"/>
        <path d="M450.217,427.051C450.549,426.719 451.019,426.251 451.357,425.92C451.909,425.381 452.481,424.938 452.956,424.748C455.248,423.831 459.271,423.845 461.706,424.251C465.708,424.918 469.049,427.329 472.383,429.614C475.364,431.657 478.332,433.609 481.959,433.609C482.632,433.609 483.179,434.156 483.179,434.829C483.179,435.502 482.632,436.048 481.959,436.048C477.83,436.048 474.398,433.952 471.004,431.626C467.963,429.542 464.956,427.266 461.305,426.657C459.234,426.312 455.811,426.233 453.862,427.013C453.682,427.085 453.493,427.261 453.285,427.452C452.795,427.902 452.29,428.472 451.867,428.887C451.342,429.403 450.835,429.703 450.522,429.773C450.07,429.874 449.694,429.771 449.384,429.547C449.127,429.359 448.818,429.015 448.77,428.334C448.723,427.663 449.229,427.079 449.901,427.032C450.009,427.024 450.115,427.031 450.217,427.051Z" style="fill:rgb(105,186,201);"/>
        <path d="M434.275,441.625C434.943,440.856 435.572,440.4 436.203,440.206C436.881,439.997 437.538,440.111 438.19,440.351C439.027,440.658 439.851,441.167 440.684,441.675C442.772,442.948 444.926,444.125 447.215,443.587C448.246,443.345 449.325,442.768 450.436,441.657C450.912,441.181 450.912,440.408 450.436,439.932C449.96,439.456 449.187,439.456 448.711,439.932C447.995,440.649 447.322,441.057 446.656,441.213C445.914,441.388 445.202,441.24 444.504,440.968C443.637,440.631 442.794,440.105 441.953,439.593C440.174,438.508 438.384,437.533 436.554,437.672C435.235,437.772 433.851,438.396 432.434,440.025C431.992,440.533 432.046,441.304 432.554,441.746C433.062,442.187 433.833,442.133 434.275,441.625Z" style="fill:rgb(105,186,201);"/>
        <path d="M460.101,456.6C462.357,456.298 470.601,452.263 471.853,451.324C479.223,445.796 495.533,429.669 499.618,421.5C504.319,412.097 511.515,403.433 514.45,393.16C517.282,383.25 517.216,372.929 520.432,363.28C521.52,360.016 524.252,356.828 526.517,354.132C527.843,352.554 529.009,351.184 529.38,350.071C531.699,343.115 531.263,335.922 532.751,328.485C533.558,324.45 535.309,321.589 537.279,318.927C539.109,316.454 541.14,314.166 542.657,311.134C543.95,308.546 544.305,305.063 544.304,301.38C544.304,295.543 543.38,289.216 543.38,284.833C543.38,284.16 543.926,283.614 544.6,283.614C545.273,283.614 545.819,284.16 545.819,284.833C545.819,289.216 546.743,295.543 546.743,301.38C546.744,305.479 546.278,309.344 544.838,312.224C543.254,315.392 541.151,317.795 539.239,320.378C537.467,322.772 535.868,325.334 535.142,328.963C533.634,336.503 534.045,343.791 531.694,350.842C531.255,352.159 529.953,353.833 528.385,355.701C526.308,358.173 523.744,361.058 522.746,364.052C519.541,373.667 519.617,383.954 516.796,393.83C513.819,404.247 506.567,413.056 501.799,422.591C497.603,430.984 480.889,447.596 473.316,453.276C472.106,454.183 464.86,457.758 461.573,458.749C460.841,458.969 460.258,459.062 459.903,459.047C459.418,459.026 459.091,458.843 458.884,458.653C458.387,458.199 458.354,457.427 458.808,456.93C459.145,456.562 459.657,456.449 460.101,456.6Z" style="fill:rgb(105,186,201);"/>
        <path d="M509.607,323.228C509.536,322.421 509.569,321.786 509.724,321.306C509.81,321.04 509.926,320.84 510.112,320.732C510.331,320.606 510.607,320.596 510.915,320.627C511.399,320.677 511.939,320.848 512.517,321.102C516.527,322.865 522.054,328.437 523.415,332.519C523.628,333.157 524.319,333.503 524.957,333.29C525.596,333.077 525.941,332.386 525.729,331.747C524.198,327.154 518.011,320.853 513.499,318.87C511.637,318.051 509.996,317.981 508.89,318.622C507.761,319.275 506.939,320.738 507.177,323.442C507.237,324.113 507.829,324.609 508.499,324.55C509.17,324.491 509.666,323.898 509.607,323.228Z" style="fill:rgb(105,186,201);"/>
        <path d="M525.986,224.083C525.491,223.822 525.226,223.244 525.38,222.682C525.558,222.033 526.229,221.651 526.878,221.829C527.37,221.964 527.797,222.285 528.102,222.839C528.35,223.29 528.523,223.967 528.577,224.822C528.769,227.873 527.539,233.753 526.453,237.426C525.943,239.151 525.425,240.417 525.121,240.822C524.37,241.823 523.415,242.428 522.485,242.916C521.823,243.262 521.172,243.51 520.747,243.935L520.655,244.021C522.667,246.229 528.509,251.953 529.453,253.525C531.27,256.553 531.807,260.13 532.221,263.686C532.598,266.922 532.862,270.137 534.185,272.782C534.486,273.384 534.242,274.117 533.64,274.418C533.038,274.719 532.304,274.475 532.003,273.873C530.561,270.988 530.21,267.497 529.799,263.968C529.425,260.759 529.001,257.513 527.361,254.779C526.349,253.093 519.516,246.533 518.278,245.006C518.008,244.673 517.894,244.407 517.86,244.287C517.746,243.887 517.839,243.585 517.941,243.38C518.09,243.082 518.936,242.297 519.022,242.21C519.506,241.726 520.169,241.359 520.903,240.986C521.665,240.599 522.538,240.201 523.17,239.358C523.368,239.095 523.626,238.317 523.952,237.27C524.828,234.448 525.893,229.843 526.118,226.627C526.169,225.9 526.177,225.25 526.122,224.72C526.098,224.489 526.023,224.209 525.986,224.083Z" style="fill:rgb(105,186,201);"/>
        <path d="M506.605,270.568C505.66,271.655 504.752,272.81 503.815,274.059C502.629,275.641 500.18,280.088 499.765,283.397C499.643,284.372 499.639,285.234 500.147,285.75C500.445,286.053 500.916,286.17 501.561,286.17C502.234,286.17 502.78,286.717 502.78,287.39C502.78,288.063 502.234,288.609 501.561,288.609C500.093,288.609 499.087,288.15 498.408,287.461C497.451,286.488 497.114,284.932 497.345,283.094C497.811,279.378 500.532,274.372 501.864,272.596C503.446,270.487 504.95,268.64 506.664,266.926C507.351,266.239 507.96,266.397 508.204,266.487C508.556,266.616 508.873,266.879 509.003,267.376C509.045,267.534 509.071,267.775 509.022,268.072C508.954,268.487 508.681,269.221 508.445,269.683C508.269,270.029 508.072,270.265 507.966,270.359C507.691,270.6 507.416,270.662 507.216,270.676C506.995,270.692 506.791,270.657 506.605,270.568ZM508.319,269.325L508.32,269.386C508.32,269.365 508.32,269.345 508.319,269.325ZM508.314,269.269L508.316,269.285L508.314,269.269Z" style="fill:rgb(105,186,201);"/>
        <path d="M453.832,278.465C453.947,278.747 453.957,279.071 453.837,279.375C453.588,280.001 452.879,280.307 452.253,280.059C451.848,279.898 451.556,279.602 451.413,279.144C451.313,278.823 451.308,278.262 451.558,277.559C452.102,276.032 453.918,273.145 455.168,271.405C455.787,270.544 456.31,269.947 456.512,269.795C460.622,266.713 466.834,266.588 472.643,266.122C475.31,265.908 477.882,265.607 480.062,264.793C482.049,264.051 483.694,262.87 484.704,260.851C485.005,260.249 485.738,260.004 486.34,260.305C486.942,260.606 487.186,261.34 486.885,261.942C484.379,266.953 478.871,268.069 472.838,268.553C467.5,268.982 461.752,268.914 457.976,271.747C457.632,272.004 456.214,274.084 455.091,275.972C454.631,276.744 454.225,277.488 453.973,278.081C453.92,278.205 453.869,278.353 453.832,278.465Z" style="fill:rgb(105,186,201);"/>
        <path d="M464.604,263.012C465.071,263.494 465.062,264.264 464.582,264.733C464.107,265.198 463.661,265.217 463.378,265.181C462.993,265.133 462.64,264.944 462.394,264.52C462.269,264.305 462.149,263.842 462.149,263.243C462.149,262.891 462.171,262.455 462.162,262.047C462.157,261.838 462.18,261.638 462.119,261.515C460.825,258.928 460.107,255.788 458.71,252.993C458.409,252.391 458.653,251.658 459.255,251.357C459.857,251.056 460.59,251.3 460.891,251.902C462.289,254.697 463.007,257.837 464.3,260.425C464.485,260.793 464.587,261.368 464.6,261.994C464.607,262.29 464.606,262.693 464.604,263.012Z" style="fill:rgb(105,186,201);"/>
        <path d="M359.309,288.09C359.319,288.444 359.176,288.801 358.887,289.05C358.355,289.509 357.875,289.383 357.596,289.268C357.306,289.149 357.001,288.921 356.871,288.445C356.838,288.323 356.794,287.993 356.91,287.555C357.037,287.076 357.375,286.181 357.603,285.744C357.73,285.5 357.862,285.334 357.947,285.249C358.203,284.993 358.884,284.658 359.809,284.475C360.895,284.26 362.378,284.151 363.458,284.247C364.062,284.301 364.565,284.43 364.894,284.595C366.441,285.368 367.537,286.218 368.482,286.92C369.301,287.528 369.939,288.046 370.818,288.071C371.779,288.099 372.938,287.584 374.752,286.375C375.312,286.002 376.069,286.153 376.443,286.713C376.816,287.273 376.664,288.031 376.104,288.404C373.59,290.081 371.932,290.579 370.618,290.504C369.64,290.448 368.809,290.091 367.95,289.53C366.865,288.822 365.71,287.729 363.803,286.776C363.647,286.698 363.389,286.684 363.089,286.665C362.414,286.623 361.583,286.672 360.854,286.773C360.459,286.828 359.964,286.956 359.713,287.025L359.309,288.09ZM358.139,286.909C357.898,286.884 357.604,286.936 357.293,287.204C357.537,286.994 357.841,286.897 358.139,286.909Z" style="fill:rgb(105,186,201);"/>
        <path d="M338.249,327.408C338.116,326.867 338.37,326.286 338.89,326.027C339.381,325.783 339.784,325.881 340.102,326.073C340.332,326.212 340.651,326.489 340.711,327.057C340.734,327.279 340.662,327.864 340.481,328.585C340.18,329.786 339.631,331.544 339.551,331.946C339.006,334.673 338.045,337.657 336.919,340.284C334.968,344.837 329.511,348.293 325.409,351.337C324.169,352.257 323.067,353.137 322.279,354.014C321.679,354.684 321.251,355.316 321.251,355.996C321.251,359.314 322.817,361.306 324.492,363.265C326.471,365.579 328.591,367.856 329.324,371.523C329.761,373.708 329.181,375.752 328.071,377.703C327.077,379.449 325.649,381.125 324.279,382.776C323.031,384.28 321.828,385.757 321.155,387.278C320.589,388.557 320.432,389.865 321.123,391.245C321.595,392.189 322.262,392.937 322.868,393.721C323.623,394.695 324.294,395.716 324.624,397.034C325.206,399.361 325.41,410.068 323.819,416.282C323.367,418.048 322.752,419.47 322.015,420.338C321.322,421.154 320.504,421.56 319.606,421.56C318.933,421.56 318.386,421.014 318.386,420.341C318.386,419.668 318.933,419.121 319.606,419.121C319.933,419.121 320.141,418.821 320.376,418.461C320.818,417.784 321.165,416.816 321.456,415.677C322.948,409.849 322.803,399.809 322.258,397.626C322.016,396.659 321.492,395.928 320.939,395.213C320.238,394.307 319.487,393.428 318.941,392.336C317.89,390.233 318.063,388.24 318.925,386.291C319.68,384.584 321.001,382.907 322.402,381.219C323.68,379.678 325.024,378.125 325.951,376.497C326.761,375.073 327.251,373.595 326.932,372.002C326.293,368.805 324.364,366.868 322.638,364.85C320.608,362.476 318.812,360.017 318.812,355.996C318.812,354.999 319.201,354.006 319.936,353.026C320.829,351.835 322.27,350.629 323.955,349.378C327.734,346.574 332.88,343.517 334.677,339.323C335.738,336.848 336.645,334.037 337.159,331.468C337.258,330.976 338.051,328.471 338.249,327.408ZM339.912,328.24C339.694,328.334 339.462,328.358 339.241,328.323C339.441,328.364 339.664,328.35 339.912,328.24Z" style="fill:rgb(105,186,201);"/>
        <path d="M346.375,454.147C346.084,454.174 345.814,454.178 345.579,454.153C345.036,454.095 344.612,453.889 344.311,453.589C343.253,452.53 342.451,451.451 341.678,450.499C340.938,449.587 340.253,448.79 339.269,448.365C338.297,447.944 337.054,447.917 335.242,448.37C334.948,448.443 334.411,448.798 333.746,449.186C332.442,449.947 330.796,450.867 329.475,451.153C327.977,451.477 326.799,451.09 326.185,449.863C325.838,449.169 325.774,448.301 326.038,447.294C326.33,446.181 327.048,444.832 328.05,443.363C330.186,440.233 333.635,436.457 336.308,433.18C337.96,431.155 339.32,429.355 339.755,428.051C340.255,426.553 340.274,424.829 340.05,422.971C339.684,419.95 338.664,416.601 337.714,413.246C336.719,409.73 335.8,406.209 335.68,403.027C335.594,400.748 335.914,398.633 336.838,396.785C337.873,394.715 340.588,392.924 342.839,390.936C344.584,389.395 346.085,387.728 345.295,385.358C345.263,385.263 345.178,385.185 345.086,385.094C344.887,384.896 344.628,384.702 344.334,384.5C343.617,384.008 342.711,383.493 341.79,382.896C338.587,380.818 335.329,377.837 337.198,372.229C337.411,371.591 338.102,371.245 338.741,371.458C339.379,371.671 339.725,372.362 339.512,373C338.122,377.172 340.735,379.304 343.118,380.85C344.264,381.593 345.385,382.218 346.174,382.821C346.923,383.393 347.411,383.994 347.608,384.587C348.745,387.995 346.963,390.548 344.453,392.764C343.385,393.708 342.195,394.593 341.149,395.488C340.245,396.261 339.445,397.026 339.02,397.875C338.074,399.767 337.961,402.009 338.231,404.417C338.524,407.016 339.273,409.8 340.061,412.582C341.047,416.063 342.091,419.542 342.471,422.678C342.743,424.926 342.673,427.009 342.069,428.823C341.573,430.312 340.084,432.41 338.198,434.721C335.567,437.947 332.166,441.657 330.065,444.738C329.374,445.751 328.828,446.685 328.527,447.503C328.34,448.014 328.201,448.441 328.367,448.772C328.415,448.868 328.527,448.825 328.636,448.818C328.955,448.796 329.312,448.687 329.687,448.543C330.95,448.057 332.351,447.161 333.328,446.61C333.891,446.292 334.358,446.077 334.65,446.003C336.785,445.47 338.345,445.512 339.589,445.889C340.886,446.282 341.867,447.041 342.775,448.03C343.738,449.078 344.619,450.414 345.896,451.722C346.034,451.718 346.318,451.705 346.516,451.673C346.955,451.603 347.432,451.495 347.882,451.414C348.468,451.308 349.021,451.253 349.455,451.299C349.998,451.358 350.422,451.563 350.723,451.864C350.881,452.022 350.991,452.211 351.048,452.435C351.094,452.614 351.162,453.231 350.55,453.845C349.664,454.735 345.756,457.644 343.14,459.887C342.163,460.725 341.371,461.433 341.105,461.876C339.756,464.125 339.497,467.644 338.66,470.157C338.508,470.611 337.737,472.876 337.477,473.638C337.465,473.753 337.437,473.869 337.389,473.982C337.133,474.594 336.763,474.732 336.723,474.751C336.413,474.899 336.134,474.892 335.9,474.833C335.615,474.761 335.348,474.602 335.154,474.282C335.126,474.235 334.865,473.839 335.052,473.201C335.22,472.63 336.159,469.946 336.346,469.386C337.235,466.72 337.582,463.007 339.014,460.621C339.352,460.057 340.309,459.102 341.552,458.036C343.008,456.787 344.875,455.331 346.375,454.147Z" style="fill:rgb(105,186,201);"/>
        <path d="M289.751,156.79C289.729,156.833 289.705,156.876 289.678,156.917C289.309,157.48 288.552,157.637 287.989,157.268C287.562,156.987 287.416,156.645 287.361,156.362C287.303,156.066 287.339,155.767 287.498,155.471C287.603,155.274 287.803,155.035 288.129,154.84C288.508,154.613 289.291,154.384 289.658,154.2C291.832,153.113 293.768,150.596 295.918,149.163C298.457,147.471 299.847,147.523 301.369,147.82C302.535,148.048 303.811,148.52 306.195,148.122C307.852,147.846 309.399,147.012 310.944,146.134C312.686,145.142 314.42,144.087 316.237,143.481C316.876,143.268 317.567,143.614 317.78,144.252C317.993,144.891 317.647,145.582 317.008,145.795C315.337,146.352 313.752,147.341 312.15,148.253C310.35,149.278 308.528,150.206 306.596,150.528C304.302,150.911 302.862,150.641 301.659,150.377C300.312,150.081 299.366,149.796 297.271,151.192C295.041,152.679 293.004,155.254 290.748,156.382C290.551,156.481 290.081,156.665 289.751,156.79ZM289.619,155.497C289.55,155.403 289.455,155.312 289.327,155.228C289.442,155.303 289.539,155.394 289.619,155.497Z" style="fill:rgb(105,186,201);"/>
        <path d="M303.892,128.527C303.986,128.737 304.104,128.981 304.214,129.155C304.321,129.324 304.412,129.492 304.516,129.561C305.48,130.204 306.495,130.309 307.517,130.211C308.751,130.093 309.997,129.697 311.214,129.393C311.866,129.23 312.529,129.627 312.692,130.28C312.856,130.933 312.458,131.596 311.805,131.759C310.471,132.092 309.102,132.51 307.749,132.639C306.184,132.789 304.64,132.575 303.163,131.591C302.609,131.222 301.853,130.068 301.515,129.213C301.293,128.652 301.26,128.168 301.301,127.937C301.401,127.374 301.738,127.08 302.117,126.937C302.379,126.838 302.86,126.727 303.454,127.161C303.891,127.481 304.053,128.039 303.892,128.527ZM302.093,129.183L302.102,129.188L302.078,129.174L302.093,129.183ZM302.06,129.162L302.014,129.13C302.029,129.141 302.045,129.152 302.06,129.162Z" style="fill:rgb(105,186,201);"/>
        <path d="M352.781,128.914C351.645,130.342 352.072,132.028 353.929,133.549C356.898,135.981 363.902,138.187 367.758,138.187C368.431,138.187 368.977,137.641 368.977,136.968C368.977,136.295 368.431,135.748 367.758,135.748C364.336,135.748 358.11,133.821 355.475,131.662C355.131,131.381 354.855,131.105 354.696,130.82C354.623,130.688 354.592,130.556 354.69,130.433C355.109,129.906 355.022,129.138 354.495,128.719C353.968,128.3 353.201,128.387 352.781,128.914Z" style="fill:rgb(105,186,201);"/>
        <path d="M359.001,101.815C358.916,101.849 358.825,101.884 358.737,101.916C358.105,102.148 357.404,101.824 357.172,101.192C356.94,100.561 357.264,99.859 357.896,99.627C358.31,99.475 358.547,99.357 358.723,99.307C358.978,99.235 359.198,99.226 359.413,99.257C359.732,99.304 360.137,99.498 360.95,100.311C365.915,105.276 368.273,106.672 374.695,109.883C375.297,110.184 375.541,110.918 375.24,111.52C374.939,112.122 374.206,112.366 373.604,112.065C366.882,108.704 364.422,107.233 359.225,102.036L359.001,101.815Z" style="fill:rgb(105,186,201);"/>
        <path d="M205.313,120.042C205.78,119.462 206.255,118.895 206.612,118.546C207.164,118.006 207.709,117.851 207.961,117.851C208.668,117.851 208.986,118.235 209.152,118.593C209.275,118.857 209.39,119.358 209.021,119.937C208.782,120.312 208.009,121.052 207.322,121.602L207.17,121.721C206.45,122.585 205.652,123.531 205.414,123.768C201.821,127.361 196.799,130.001 192.562,133.632C188.092,137.463 183.352,142.586 178.268,147.116C173.024,151.789 167.408,155.82 161.383,157.326C157.549,158.285 153.296,157.753 149.541,159.005C143.67,160.962 138.978,166.089 135.267,172.351C129.539,182.019 126.186,194.422 124.791,202.791C124.657,203.596 124.617,204.68 124.626,205.943C124.855,206.739 124.999,207.59 125.073,208.474C125.22,210.233 125.094,212.122 124.891,213.886C124.946,215.952 124.947,218.008 124.794,219.821C124.557,222.623 123.897,224.887 122.746,226.038C122.163,226.621 121.605,226.464 121.232,226.249C121.036,226.137 120.637,225.846 120.591,225.168C120.528,224.236 121.882,217.844 121.955,217.333C122.106,216.277 122.307,215.03 122.463,213.711C122.4,211.139 122.258,208.55 122.221,206.377C121.997,205.675 121.675,205.042 121.218,204.517C120.948,204.641 120.308,204.951 119.831,205.302C116.907,207.451 112.785,212.111 111.481,212.98C111.227,213.149 110.628,213.395 109.813,213.658C108.289,214.149 105.865,214.816 104.064,215.554C103.533,215.772 102.938,216.122 102.605,216.329C102.718,216.738 102.613,217.194 102.292,217.515C101.816,217.991 101.043,217.991 100.567,217.515C100.157,217.105 100.002,216.67 99.986,216.253C99.966,215.729 100.186,215.148 100.77,214.623C101.686,213.8 103.938,212.939 106.11,212.251C107.944,211.671 109.704,211.234 110.128,210.951C110.84,210.476 112.419,208.803 114.174,207.083C116.095,205.2 118.212,203.271 119.71,202.492C120.825,201.912 121.758,201.928 122.399,202.311C123.841,193.709 127.299,181.015 133.169,171.108C137.202,164.3 142.388,158.818 148.77,156.691C152.583,155.42 156.898,155.934 160.791,154.96C166.461,153.543 171.71,149.692 176.646,145.295C181.741,140.754 186.495,135.621 190.975,131.781C195.163,128.191 200.138,125.595 203.69,122.043C203.84,121.893 204.134,121.526 204.491,121.075C204.553,120.657 204.831,120.283 205.252,120.118L205.252,120.118L205.2,120.139L205.313,120.042Z" style="fill:rgb(105,186,201);"/>
        <path d="M121.117,239.859C124.614,235.996 128.243,231.304 132.225,227.057C137.233,221.715 142.803,217.091 149.286,215.47C149.939,215.307 150.602,215.704 150.765,216.357C150.928,217.01 150.531,217.673 149.878,217.836C143.827,219.349 138.678,223.739 134.004,228.725C130.524,232.437 127.31,236.488 124.219,240.033C124.693,240.125 125.088,240.496 125.185,240.999C125.288,241.532 125.155,241.908 124.978,242.178C124.764,242.505 124.43,242.751 123.94,242.827C123.72,242.862 123.433,242.857 123.103,242.796C122.787,242.739 122.395,242.622 121.99,242.51C121.53,243.003 121.072,243.479 120.615,243.935C120.271,244.279 119.925,244.623 119.576,244.966C118.824,246.556 118.179,248.236 117.477,249.893C116.234,252.83 114.819,255.697 112.519,257.997C111.968,258.548 111.005,258.683 109.864,258.167C109.193,257.864 108.399,257.346 107.675,256.949C107.428,256.815 107.062,256.67 106.908,256.611L102.917,258.607C101.855,259.158 101.097,259.517 101.097,259.517C100.492,259.801 99.772,259.546 99.48,258.946C99.189,258.345 99.435,257.621 100.032,257.323L102.347,256.165C103.916,255.341 105.907,254.207 107.019,253.234C110.61,250.092 114.184,246.837 117.574,243.513C118.052,242.53 118.571,241.582 119.165,240.692C119.468,240.237 119.927,239.958 120.525,239.874C120.705,239.848 120.904,239.845 121.117,239.859ZM115.106,249.236C113.062,251.136 110.978,253.007 108.887,254.84C109.187,255.002 109.494,255.181 109.798,255.36C110.192,255.593 110.773,255.865 111.062,255.996C112.903,254.048 114.066,251.668 115.106,249.236Z" style="fill:rgb(105,186,201);"/>
        <path d="M171.063,380.461C171.113,380.294 171.197,380.007 171.246,379.817C171.445,379.049 171.787,378.362 172.342,377.992C178.876,373.636 180,369.961 180.725,366.809C181.292,364.343 181.722,362.186 183.662,360.247C187.828,356.081 194.298,356.065 200.976,356.724C207.046,357.323 213.277,358.478 217.708,356.579C218.326,356.314 219.044,356.601 219.309,357.22C219.574,357.839 219.287,358.556 218.668,358.821C213.92,360.856 207.243,359.793 200.737,359.151C197.691,358.851 194.686,358.66 191.967,359.028C189.434,359.371 187.157,360.201 185.386,361.972C183.809,363.549 183.563,365.35 183.102,367.356C182.286,370.903 181.078,375.079 173.76,379.977C173.732,380.055 173.633,380.327 173.591,380.491C173.491,380.887 173.391,381.283 173.246,381.598C172.925,382.296 172.416,382.723 171.659,382.797C170.989,382.862 170.392,382.371 170.327,381.701C170.274,381.158 170.586,380.664 171.063,380.461Z" style="fill:rgb(105,186,201);"/>
        <path d="M199.575,314.054C199.553,314.09 199.515,314.157 199.496,314.205C199.444,314.343 199.41,314.5 199.385,314.67C199.142,316.333 199.786,318.91 200.133,319.721C202.892,326.157 208.606,333.862 214.898,337.008C215.5,337.309 215.745,338.042 215.444,338.644C215.143,339.246 214.409,339.49 213.807,339.189C207.051,335.811 200.853,327.592 197.891,320.682C197.454,319.66 196.666,316.411 196.972,314.317C197.153,313.076 197.73,312.189 198.573,311.815C199.146,311.562 199.903,311.498 200.88,311.878C201.507,312.122 201.818,312.829 201.574,313.457C201.33,314.084 200.622,314.395 199.995,314.151C199.849,314.094 199.646,314.063 199.575,314.054Z" style="fill:rgb(105,186,201);"/>
        <path d="M188.344,310.175C188.773,309.851 189.383,309.841 189.827,310.187C190.404,310.635 190.465,311.103 190.468,311.34C190.474,311.83 190.278,312.31 189.626,312.564C189.411,312.648 188.899,312.704 188.239,312.641C187.431,312.563 186.213,312.329 185.616,312.449C183.04,312.964 180.234,313.033 177.907,314.429C174.301,316.593 169.325,318.647 165.254,321.57C161.471,324.286 158.472,327.77 158.472,332.985C158.472,333.658 157.925,334.205 157.252,334.205C156.579,334.205 156.033,333.658 156.033,332.985C156.033,326.897 159.416,322.759 163.831,319.589C167.959,316.626 172.997,314.531 176.653,312.338C179.221,310.797 182.294,310.626 185.137,310.057C185.784,309.928 187.456,310.079 188.344,310.175Z" style="fill:rgb(105,186,201);"/>
        <path d="M155.421,334.324C154.715,334.462 154.15,334.861 153.739,335.529C153.332,336.191 153.083,337.206 153.041,338.502C152.821,345.435 158.306,362.007 159.035,366.015C159.258,367.242 159.144,369.682 159.718,371.441C160.263,373.108 161.325,374.26 163.218,374.26C163.891,374.26 164.437,373.714 164.437,373.041C164.437,372.368 163.891,371.821 163.218,371.821C162.243,371.821 162.029,370.879 161.849,369.935C161.553,368.375 161.615,366.568 161.435,365.579C160.805,362.114 156.544,349.154 155.636,341.38C155.457,339.85 155.405,338.538 155.572,337.578C155.621,337.299 155.684,337.057 155.783,336.865C155.816,336.803 155.826,336.73 155.887,336.718C156.548,336.589 156.98,335.949 156.851,335.288C156.722,334.627 156.082,334.195 155.421,334.324Z" style="fill:rgb(105,186,201);"/>
        <path d="M144.943,350.809L144.965,350.784C145.464,350.202 147.098,348.194 148.538,346.825C149.271,346.128 149.98,345.595 150.506,345.373C151.231,345.066 151.829,345.179 152.248,345.465C152.554,345.674 152.834,346.012 152.948,346.578C153.081,347.237 152.654,347.881 151.994,348.014C151.68,348.078 151.369,348.014 151.116,347.859C150.881,348.028 150.572,348.263 150.341,348.477C149.052,349.675 147.565,351.484 146.959,352.203C146.691,352.521 146.498,352.697 146.456,352.727C144.834,353.885 141.367,355.399 138.429,355.578C136.087,355.72 134.089,355.01 133.151,353.132C132.85,352.53 133.094,351.797 133.696,351.496C134.298,351.195 135.031,351.439 135.332,352.041C135.84,353.058 137.014,353.22 138.281,353.143C140.699,352.996 143.541,351.775 144.943,350.809Z" style="fill:rgb(105,186,201);"/>
        <path d="M160.771,283.539C161.252,283.451 162.388,283.244 162.553,283.211C164.799,282.762 166.842,282.761 169.184,282.761C176.252,282.761 183.089,279.778 190.064,279.778C190.737,279.778 191.283,280.325 191.283,280.998C191.283,281.671 190.737,282.217 190.064,282.217C183.089,282.217 176.252,285.2 169.184,285.2C167.012,285.2 165.115,285.186 163.031,285.603C162.796,285.65 161.389,285.973 160.721,286.011C160.134,286.045 159.74,285.842 159.582,285.715C159.325,285.511 159.186,285.257 159.13,284.98C159.075,284.712 159.075,284.363 159.343,283.981C159.669,283.516 160.262,283.348 160.771,283.539ZM161.556,284.575C161.581,284.851 161.512,285.136 161.34,285.381C161.55,285.081 161.595,284.812 161.556,284.575Z" style="fill:rgb(105,186,201);"/>
        <path d="M292.479,233.656L292.478,233.657C292.478,233.657 292.78,232.824 293.214,232.31C293.642,231.802 294.226,231.45 294.918,231.436C295.386,231.427 295.941,231.564 296.547,232.054C297.103,232.504 297.785,233.351 298.538,234.857C301.964,241.709 304.61,249.855 306.716,257.226C306.901,257.873 306.526,258.549 305.879,258.734C305.231,258.919 304.556,258.543 304.371,257.896C302.305,250.665 299.718,242.67 296.356,235.948C295.978,235.191 295.64,234.648 295.329,234.274C295.241,234.167 295.125,234.062 295.034,233.985C294.946,234.129 294.826,234.334 294.802,234.401C294.279,235.851 292.411,234.192 292.409,234.17C292.407,234.145 292.383,234.009 292.443,233.772C292.453,233.732 292.465,233.694 292.479,233.656ZM294.543,233.269C294.798,233.56 294.91,233.968 294.808,234.371C294.98,233.692 294.609,233.332 294.543,233.269ZM292.754,233.219L292.75,233.223L292.762,233.211L292.754,233.219ZM293.541,232.855C293.336,232.864 293.05,232.923 292.779,233.194C292.983,232.997 293.253,232.875 293.541,232.855ZM293.864,232.876L293.925,232.89C294.105,232.935 294.265,233.019 294.4,233.13C294.237,232.992 294.057,232.911 293.864,232.876ZM293.827,232.869L293.863,232.875L293.837,232.871L293.827,232.869Z" style="fill:rgb(105,186,201);"/>
        <path d="M306.704,202.904C307.061,203.341 307.26,203.962 307.389,204.692C307.629,206.05 307.586,207.745 307.417,209.562C306.963,214.448 305.602,220.153 305.602,223.045C305.602,223.718 306.149,224.264 306.822,224.264C307.495,224.264 308.041,223.718 308.041,223.045C308.041,219.703 309.891,212.573 309.989,207.359C310.038,204.771 309.615,202.612 308.592,201.36C308.165,200.839 307.396,200.762 306.875,201.188C306.354,201.614 306.277,202.383 306.704,202.904Z" style="fill:rgb(105,186,201);"/>
        <path d="M297.113,181.142C297.133,181.118 297.155,181.093 297.18,181.068C297.871,180.371 300.511,177.615 302.235,175.487C302.876,174.695 303.396,174.02 303.549,173.612C305.874,167.414 305.326,163.227 307.862,158.155C308.163,157.553 308.896,157.308 309.498,157.609C310.1,157.91 310.344,158.643 310.043,159.245C308.841,161.65 308.383,163.849 307.941,166.179C307.467,168.677 307.015,171.317 305.833,174.469C305.628,175.016 304.99,175.96 304.13,177.022C302.351,179.219 299.626,182.065 298.912,182.785C298.725,182.974 298.604,183.072 298.583,183.087C298.232,183.337 297.943,183.317 297.837,183.314C297.443,183.302 297.171,183.134 296.974,182.919C296.799,182.728 296.654,182.467 296.654,182.095C296.654,181.709 296.833,181.365 297.113,181.142Z" style="fill:rgb(105,186,201);"/>
        <path d="M394.234,235.626C393.717,235.414 393.368,235.132 393.218,234.923C393.03,234.659 392.958,234.386 392.958,234.124C392.958,233.412 393.27,233.063 393.479,232.892C393.832,232.605 394.278,232.479 394.826,232.701C395.034,232.785 395.352,233 395.672,233.382L395.783,233.519C396.067,233.589 396.379,233.655 396.615,233.68C396.841,233.704 397.142,233.705 397.251,233.705C397.731,233.469 398.329,233.572 398.7,233.993C399.146,234.497 399.098,235.268 398.594,235.714C398.405,235.881 398.079,236.059 397.614,236.12C397.588,236.123 397.561,236.126 397.534,236.128C397.596,236.22 397.655,236.303 397.71,236.375C399.615,238.915 399.968,242.274 400.494,245.429C401.874,253.708 402.215,261.247 402.215,269.493C402.215,270.166 401.669,270.712 400.995,270.712C400.322,270.712 399.776,270.166 399.776,269.493C399.776,261.385 399.445,253.971 398.088,245.83C397.626,243.057 397.433,240.071 395.759,237.839C395.432,237.404 394.724,236.357 394.234,235.626Z" style="fill:rgb(105,186,201);"/>
        <path d="M127.908,410.804C127.908,418.62 135.492,438.779 140.821,449.436C141.122,450.038 141.855,450.283 142.457,449.982C143.059,449.681 143.303,448.948 143.002,448.346C137.819,437.98 130.347,418.406 130.347,410.804C130.347,410.131 129.801,409.585 129.128,409.585C128.455,409.585 127.908,410.131 127.908,410.804Z" style="fill:rgb(105,186,201);"/>
        <path d="M110.635,393.563C111.011,392.759 111.409,391.935 111.566,391.686C112.019,390.968 112.679,391.009 112.854,391.034C113.52,391.129 113.984,391.747 113.889,392.413C113.855,392.653 113.753,392.867 113.605,393.038C113.444,393.383 112.491,395.424 112.119,396.188C111.92,396.596 111.733,396.848 111.667,396.914C111.571,397.01 111.472,397.085 111.37,397.143C114.719,402.753 119.192,407.969 122.122,413.83C122.423,414.432 122.179,415.165 121.577,415.466C120.975,415.767 120.242,415.522 119.941,414.92C116.51,408.058 110.963,402.079 107.583,395.319C107.498,395.149 107.454,394.963 107.454,394.773L107.454,393.921C107.454,393.598 107.583,393.287 107.812,393.059C108.208,392.662 108.622,392.541 109.004,392.54C109.369,392.54 109.742,392.664 110.09,392.946C110.273,393.095 110.459,393.309 110.635,393.563ZM113.089,393.39C112.949,393.441 112.797,393.466 112.64,393.46C112.777,393.466 112.928,393.45 113.089,393.39ZM112.593,393.458L112.625,393.459L112.579,393.456L112.593,393.458Z" style="fill:rgb(105,186,201);"/>
        <path d="M97.827,333.207C98.055,333.483 98.162,333.9 98.246,334.396C98.363,335.079 98.395,335.889 98.389,336.78C98.37,339.725 97.94,343.466 98.208,346.588C98.564,350.729 100.139,353.806 104.413,353.806C105.086,353.806 105.632,353.26 105.632,352.587C105.632,351.914 105.086,351.367 104.413,351.367C102.422,351.367 101.465,350.204 101.004,348.555C100.621,347.188 100.54,345.532 100.559,343.813C100.589,341.03 100.889,338.09 100.817,335.81C100.758,333.963 100.403,332.495 99.706,331.653C99.277,331.134 98.508,331.062 97.989,331.491C97.471,331.919 97.398,332.689 97.827,333.207Z" style="fill:rgb(105,186,201);"/>
        <path d="M100.383,297.202C100.357,297.246 100.317,297.317 100.281,297.381C99.582,298.664 97.471,303.174 97.177,307.217C97.01,309.524 97.397,311.708 99.418,312.719C100.02,313.02 100.265,313.753 99.964,314.355C99.663,314.957 98.93,315.201 98.328,314.9C95.388,313.431 94.501,310.395 94.745,307.04C95.068,302.593 97.37,297.625 98.14,296.214C98.412,295.714 98.67,295.476 98.726,295.436C99.295,295.025 99.775,295.205 100.055,295.366C100.638,295.703 100.838,296.449 100.502,297.032C100.467,297.093 100.427,297.15 100.383,297.202ZM98.893,297.51C99.085,297.609 99.307,297.664 99.563,297.636C99.339,297.659 99.107,297.619 98.893,297.51ZM98.89,297.509L98.836,297.479C98.854,297.49 98.872,297.499 98.89,297.509Z" style="fill:rgb(105,186,201);"/>
        <path d="M126.187,268.813C125.859,269.371 122.815,274.566 122.568,275.111C121.649,277.132 120.331,279.985 119.701,282.759C119.321,284.43 119.178,286.069 119.632,287.43C119.845,288.069 119.499,288.76 118.86,288.973C118.222,289.186 117.531,288.84 117.318,288.202C116.737,286.458 116.836,284.359 117.322,282.219C117.99,279.276 119.373,276.246 120.347,274.101C120.626,273.488 123.592,268.231 124.239,267.336C124.876,266.454 125.764,266.772 125.895,266.838C126.138,266.962 126.36,267.161 126.487,267.5C126.665,267.972 126.531,268.486 126.187,268.813ZM124.631,268.917C124.443,268.782 124.292,268.592 124.205,268.359C124.302,268.618 124.455,268.794 124.631,268.917Z" style="fill:rgb(105,186,201);"/>
        <path d="M501.862,427.756C502.616,427.188 504.636,425.712 506.385,424.653C507.403,424.036 508.345,423.566 508.935,423.419C512.811,422.45 519.922,416.807 522.279,413.272C522.652,412.712 523.41,412.561 523.97,412.934C524.53,413.307 524.681,414.065 524.308,414.625C521.705,418.53 513.809,424.715 509.527,425.785C508.918,425.937 507.855,426.589 506.775,427.287C505.378,428.191 503.978,429.208 503.413,429.63C503.376,429.665 503.337,429.698 503.295,429.729C502.716,430.153 502.304,430.08 502.292,430.079C501.9,430.041 501.65,429.856 501.478,429.655C501.322,429.471 501.214,429.245 501.191,428.961C501.183,428.864 501.11,428.425 501.557,427.989C501.567,427.98 501.631,427.93 501.74,427.847L501.732,427.849C501.732,427.849 501.79,427.808 501.851,427.763L501.862,427.756Z" style="fill:rgb(105,186,201);"/>
        <path d="M479.993,342.742C479.733,342.676 479.493,342.524 479.319,342.293C479.021,341.896 479.052,341.539 479.094,341.321C479.152,341.024 479.3,340.775 479.553,340.582C479.656,340.503 480.084,340.169 480.768,340.418C481.272,340.6 484.357,342.298 485.607,344.797C487.41,348.405 489.815,351.711 490.813,355.7C490.976,356.353 490.578,357.016 489.925,357.179C489.272,357.342 488.61,356.945 488.446,356.292C487.493,352.478 485.15,349.337 483.425,345.888C482.601,344.241 480.38,342.956 479.993,342.742ZM481.31,340.886C481.456,341.105 481.522,341.357 481.513,341.604C481.526,341.41 481.496,341.159 481.31,340.886Z" style="fill:rgb(105,186,201);"/>
        <path d="M466.453,340.279C466.303,340.062 466.223,339.796 466.241,339.513C466.317,338.291 467.329,338.164 467.461,338.161C467.723,338.154 468.015,338.218 468.294,338.458C468.364,338.519 468.637,338.785 468.758,339.36C468.995,340.493 469.699,345.846 472.595,348.742C473.07,349.218 473.07,349.99 472.595,350.466C472.119,350.942 471.346,350.942 470.87,350.466C467.857,347.454 466.814,342.151 466.453,340.279Z" style="fill:rgb(105,186,201);"/>
        <path d="M461.088,303.21C461.017,303.376 460.937,303.578 460.888,303.75C460.556,304.901 460.351,306.41 460.132,307.287C459.763,308.763 458.828,310.356 458.113,312C457.548,313.298 457.099,314.633 457.549,315.981C458.299,318.231 460.064,319.932 462.004,321.498C464.167,323.242 466.559,324.809 468.333,326.583C468.809,327.059 468.809,327.832 468.333,328.308C467.857,328.784 467.085,328.784 466.609,328.308C464.891,326.59 462.566,325.085 460.473,323.396C458.158,321.528 456.13,319.436 455.235,316.752C454.591,314.821 455.067,312.887 455.876,311.027C456.535,309.512 457.425,308.056 457.765,306.696C458.101,305.354 458.468,302.676 459.161,301.594C459.579,300.94 460.129,300.639 460.683,300.604C461.072,300.579 461.516,300.676 461.981,301.033C462.515,301.443 462.616,302.209 462.206,302.743C461.933,303.099 461.503,303.262 461.088,303.21Z" style="fill:rgb(105,186,201);"/>
        <path d="M418.626,270.378C418.864,270.189 419.845,269.4 420.649,268.597C422.834,266.416 425.809,263.067 427.9,261.002C428.921,259.993 429.778,259.278 430.279,259.027C431.445,258.444 432.705,258.694 433.931,259.551C435.152,260.404 436.37,261.911 437.389,263.158C437.926,263.816 438.377,264.397 438.745,264.643C439.361,265.054 440.163,265.21 441.011,265.309C442.048,265.429 443.151,265.441 444.174,265.518C445.891,265.646 447.394,266.014 448.305,266.926C448.781,267.402 448.781,268.174 448.305,268.65C447.829,269.126 447.057,269.126 446.581,268.65C446.278,268.347 445.828,268.216 445.322,268.115C444.61,267.972 443.796,267.931 442.961,267.889C440.938,267.787 438.829,267.63 437.392,266.672C436.952,266.379 436.389,265.779 435.771,265.031C435.017,264.12 434.135,262.965 433.211,262.107C432.869,261.788 432.524,261.512 432.176,261.329C431.9,261.184 431.632,261.077 431.37,261.209C430.928,261.429 430.173,262.169 429.229,263.121C426.709,265.664 423.16,269.696 421.1,271.537C420.461,272.108 419.923,272.49 419.563,272.65C419.098,272.857 418.71,272.839 418.438,272.762C417.791,272.577 417.415,271.901 417.6,271.254C417.739,270.768 418.154,270.436 418.626,270.378Z" style="fill:rgb(105,186,201);"/>
        <path d="M433.28,253.31C433.313,253.191 433.424,252.772 433.451,252.435C433.518,251.586 433.462,250.465 433.326,249.178C432.661,242.848 430.067,232.725 429.241,230.249C429.028,229.61 429.374,228.919 430.012,228.706C430.651,228.493 431.342,228.839 431.555,229.477C432.528,232.396 435.872,245.614 435.917,251.522C435.927,252.77 435.773,253.742 435.501,254.335C435.284,254.809 434.982,255.127 434.65,255.321C434.07,255.662 433.322,255.467 432.982,254.886C432.669,254.354 432.807,253.681 433.28,253.31Z" style="fill:rgb(105,186,201);"/>
        <path d="M449.286,213.579C449.159,213.51 449.042,213.418 448.942,213.302C448.503,212.791 448.561,212.021 449.071,211.582C449.405,211.295 449.748,211.222 450.07,211.244C450.347,211.264 450.637,211.366 450.905,211.602C451.078,211.755 451.276,212.023 451.436,212.37C451.564,212.649 451.758,213.167 451.822,213.339C453.87,215.296 457.452,216.246 460.346,217.693C460.948,217.994 461.192,218.727 460.891,219.329C460.59,219.931 459.857,220.175 459.255,219.874C456.076,218.285 452.179,217.148 449.99,214.959C449.864,214.833 449.693,214.584 449.552,214.242C449.485,214.078 449.371,213.792 449.286,213.579ZM450.488,213.555L450.481,213.559L450.488,213.555ZM450.554,213.513L450.529,213.53L450.543,213.521L450.554,213.513ZM450.609,213.474L450.584,213.492L450.603,213.479L450.609,213.474Z" style="fill:rgb(105,186,201);"/>
        <path d="M460.764,199.152C460.57,199.251 460.346,199.299 460.113,199.28C459.442,199.224 458.943,198.634 458.998,197.964C459.063,197.177 459.759,196.351 461.265,196.758C463.069,197.245 467.518,199.973 468.016,200.222C472.171,202.299 474.386,202.85 478.846,203.965C479.499,204.128 479.897,204.791 479.733,205.443C479.57,206.096 478.907,206.494 478.254,206.331C473.588,205.164 471.273,204.577 466.926,202.403C466.471,202.176 462.529,199.701 460.764,199.152ZM461.422,198.23L461.421,198.233L461.422,198.23Z" style="fill:rgb(105,186,201);"/>
        <path d="M506.477,175.288C506.711,175.06 507.035,174.926 507.387,174.943C507.91,174.969 508.192,175.244 508.362,175.515C508.514,175.758 508.711,176.192 508.39,176.762C508.37,176.799 508.183,177.061 507.75,177.384C506.427,178.371 501.129,182.136 497.95,184.665C496.982,185.435 496.042,186.318 495.855,186.496C494.556,190.583 496.407,193.605 497.336,196.399C497.927,198.176 498.206,199.877 497.638,201.63C497.091,203.315 495.736,205.099 492.863,207.015C492.298,207.391 491.368,208.478 490.519,209.095C489.901,209.543 489.281,209.776 488.777,209.776C488.104,209.776 487.558,209.23 487.558,208.557C487.558,207.905 488.071,207.371 488.714,207.339C488.777,207.302 489.166,207.07 489.392,206.88C490.181,206.217 490.994,205.329 491.51,204.985C493.664,203.549 494.808,202.283 495.27,201.016C495.958,199.129 495.111,197.35 494.358,195.353C493.31,192.578 492.286,189.487 493.586,185.586C493.639,185.428 493.753,185.2 493.971,184.939C494.201,184.662 494.62,184.262 495.18,183.783C498.004,181.368 504.766,176.568 506.291,175.429C506.361,175.377 506.435,175.32 506.477,175.288ZM506.325,176.856C506.488,177.098 506.748,177.331 507.196,177.374C506.833,177.335 506.521,177.138 506.325,176.856ZM506.121,175.982C506.07,176.286 506.141,176.531 506.246,176.726C506.149,176.54 506.098,176.326 506.109,176.102C506.111,176.061 506.115,176.022 506.121,175.982ZM506.124,175.964L506.122,175.974L506.124,175.964Z" style="fill:rgb(105,186,201);"/>
        <path d="M525.631,193.671C525.429,193.472 525.296,193.202 525.273,192.898C525.222,192.227 525.726,191.641 526.397,191.59C526.632,191.572 526.933,191.606 527.246,191.839C527.358,191.922 527.579,192.141 527.796,192.548C528.388,193.658 529.897,197.503 531.683,200.737C532.734,202.639 533.819,204.36 534.918,204.909C535.52,205.21 535.764,205.943 535.463,206.545C535.162,207.147 534.429,207.392 533.827,207.091C532.747,206.551 531.576,205.232 530.5,203.533C528.307,200.07 526.341,195.003 525.644,193.695L525.631,193.671ZM526.513,194.026L526.517,194.025L526.48,194.025L526.513,194.026ZM526.443,194.025L526.453,194.025L526.413,194.023L526.443,194.025ZM526.37,194.02L526.387,194.021L526.351,194.018L526.37,194.02ZM526.296,194.011L526.312,194.013L526.289,194.009L526.296,194.011Z" style="fill:rgb(105,186,201);"/>
        <path d="M494.819,221.172C494.735,221.04 494.674,220.888 494.646,220.724C494.533,220.06 494.979,219.429 495.642,219.316C496.152,219.229 496.508,219.367 496.762,219.542C497.002,219.707 497.185,219.935 497.292,220.238C497.392,220.522 497.415,220.989 497.267,221.538C497.139,222.012 496.815,222.65 496.815,223.045L496.815,229.011C496.815,230.033 497.328,230.742 497.851,231.463C498.338,232.132 498.854,232.801 499.243,233.579C500.631,236.355 499.777,238.322 499.026,240.123C498.743,240.801 498.438,241.429 498.578,242.12C498.665,242.553 498.941,242.989 499.44,243.489C499.916,243.965 499.916,244.738 499.44,245.214C498.964,245.689 498.192,245.689 497.716,245.214C496.781,244.279 496.35,243.412 496.187,242.603C496.019,241.769 496.134,240.974 496.396,240.174C496.632,239.456 497.001,238.731 497.269,237.939C497.58,237.02 497.718,235.983 497.061,234.67C496.638,233.823 496.025,233.136 495.527,232.398C494.868,231.422 494.376,230.376 494.376,229.011L494.376,223.045C494.376,222.708 494.475,222.259 494.624,221.796C494.682,221.616 494.756,221.375 494.819,221.172Z" style="fill:rgb(105,186,201);"/>
        <path d="M183.819,232.154C183.847,232.132 183.875,232.11 183.897,232.09C184.089,231.918 184.281,231.697 184.479,231.456C185.37,230.367 186.342,228.97 187.306,228.391C190.33,226.577 197.585,221.302 203.281,219.102C206.089,218.017 208.582,217.731 210.211,218.545C210.813,218.846 211.057,219.579 210.756,220.181C210.455,220.783 209.722,221.028 209.12,220.727C208.608,220.471 207.958,220.447 207.219,220.536C206.297,220.648 205.262,220.951 204.16,221.377C198.593,223.527 191.516,228.709 188.561,230.483C188.06,230.783 187.596,231.419 187.121,232.035C186.465,232.886 185.81,233.727 185.197,234.173C184.621,234.593 184.035,234.745 183.482,234.662C183.079,234.601 182.669,234.419 182.278,234.029C181.802,233.554 181.8,232.781 182.276,232.305C182.695,231.884 183.345,231.834 183.819,232.154Z" style="fill:rgb(105,186,201);"/>
        <path d="M194.157,232.233C194.193,232.227 194.251,232.216 194.288,232.203C194.366,232.178 194.446,232.144 194.527,232.105C194.912,231.92 195.317,231.636 195.733,231.347C196.543,230.784 197.386,230.21 198.174,229.951C198.959,229.693 199.713,229.702 200.41,230.051C203.132,231.411 204.467,234.052 205.93,236.626C207.114,238.712 208.406,240.755 211.24,241.464C211.893,241.627 212.29,242.289 212.127,242.942C211.964,243.595 211.301,243.993 210.648,243.83C207.059,242.932 205.309,240.472 203.809,237.831C202.586,235.679 201.594,233.37 199.319,232.232C199.223,232.184 199.12,232.215 199.013,232.245C198.825,232.296 198.634,232.386 198.439,232.492C197.754,232.866 197.052,233.424 196.385,233.849C194.898,234.797 193.496,235.018 192.451,233.976C191.975,233.5 191.974,232.727 192.45,232.251C192.92,231.78 193.68,231.774 194.157,232.233Z" style="fill:rgb(105,186,201);"/>
        <path d="M391.246,139.03C391.267,139.012 391.291,138.993 391.315,138.975C395.969,135.485 398.948,135.056 401.669,135.015C404.042,134.979 406.205,135.343 409.399,133.746C411.119,132.886 413.265,131.671 413.901,129.764C414.101,129.164 414.66,127.478 414.857,127.208C415.343,126.542 415.958,126.635 416.273,126.741C416.476,126.809 417.129,127.053 417.129,128.019C417.129,128.355 416.993,128.659 416.773,128.88C416.613,129.352 416.317,130.229 416.215,130.535C415.383,133.031 412.74,134.803 410.489,135.928C407.533,137.406 405.347,137.474 403.184,137.458C400.599,137.438 398.058,137.305 393.855,140.157C393.849,140.202 393.84,140.247 393.829,140.292C393.668,140.932 393.027,141.325 392.388,141.186L392.375,141.193C391.033,141.872 390.596,140.114 390.609,139.984C390.624,139.838 390.664,139.617 390.846,139.375C390.859,139.358 390.959,139.19 391.238,139.034L391.246,139.03ZM392.742,140.953C392.547,141.097 392.433,141.162 392.391,141.184C392.562,141.203 392.679,141.062 392.742,140.953Z" style="fill:rgb(105,186,201);"/>
        <path d="M421.476,120.325C422.969,121.427 427.627,124.152 429.842,124.705C430.495,124.869 430.892,125.531 430.729,126.184C430.566,126.837 429.903,127.235 429.25,127.072C426.986,126.506 422.385,123.91 420.429,122.57C419.764,122.114 419.358,121.724 419.246,121.556C418.892,121.024 419.014,120.573 419.14,120.304C419.271,120.025 419.637,119.437 420.578,119.61C420.993,119.686 421.32,119.964 421.476,120.325ZM420.214,122.02L420.226,122.021L420.208,122.019L420.214,122.02Z" style="fill:rgb(105,186,201);"/>
        <path d="M437.617,137.062C437.932,137.275 438.809,137.852 439.625,138.244C442.515,139.634 446.89,141.187 448.35,141.813C451.044,142.967 452.768,145.298 454.381,147.584C455.709,149.465 456.916,151.34 458.908,152.004C459.547,152.216 459.892,152.908 459.679,153.546C459.466,154.185 458.775,154.53 458.137,154.317C455.67,153.495 454.033,151.32 452.388,148.99C451.031,147.066 449.657,145.026 447.389,144.054C445.486,143.239 438.769,140.865 436.464,139.274C435.795,138.812 435.415,138.328 435.277,137.964C435.115,137.536 435.141,137.137 435.306,136.773C435.584,136.16 436.308,135.888 436.921,136.166C437.3,136.338 437.549,136.68 437.617,137.062Z" style="fill:rgb(105,186,201);"/>
        <path d="M423.648,190.291C423.423,190.913 422.738,191.244 422.109,191.03C421.775,190.916 421.566,190.713 421.427,190.484C421.264,190.216 421.162,189.856 421.311,189.406C421.37,189.228 421.549,188.91 421.887,188.575C422.482,187.983 423.821,186.989 423.996,186.814C425.977,184.833 428.71,182.622 431.676,182.622C435.102,182.622 438.34,184.481 441.383,185.717C443.816,186.705 446.118,187.277 448.285,185.11C448.761,184.634 449.534,184.634 450.01,185.11C450.486,185.586 450.486,186.358 450.01,186.834C447.003,189.841 443.84,189.348 440.465,187.977C437.7,186.854 434.79,185.061 431.676,185.061C429.338,185.061 427.282,186.977 425.721,188.539C425.562,188.697 424.101,189.914 423.648,190.291ZM422.96,188.745C423.184,188.836 423.367,188.987 423.498,189.173C423.384,188.991 423.211,188.843 422.96,188.745Z" style="fill:rgb(105,186,201);"/>
        <path d="M212.184,449.409C212.452,450.161 211.697,450.783 211.59,450.841C211.508,450.885 210.969,451.178 210.328,450.771C210.137,450.649 209.583,450.224 209.317,449.934C209.146,449.748 209.042,449.569 208.99,449.443C208.775,448.931 208.912,448.524 209.11,448.24C209.277,448 209.568,447.706 210.154,447.706C210.561,447.706 210.826,447.428 211.157,447.256C211.65,447 212.187,446.803 212.862,446.803C216.105,446.803 219.351,444.901 222.317,442.278C227.006,438.131 230.964,432.132 232.999,428.061C233.41,427.24 233.238,426.025 233.269,425.01C233.305,423.863 233.563,422.897 234.126,422.334C234.625,421.835 234.618,421.117 234.486,420.314C234.297,419.165 233.783,417.871 233.241,416.562C232.515,414.811 231.736,413.038 231.414,411.516C231.144,410.24 231.195,409.105 231.645,408.205C232.552,406.391 235.346,402.892 237.846,400.961C239.117,399.979 240.359,399.418 241.293,399.418C241.955,399.418 242.493,399.956 242.493,400.618C242.493,401.281 241.955,401.818 241.293,401.818C240.97,401.818 240.6,402.008 240.184,402.258C239.605,402.605 238.985,403.096 238.364,403.661C236.426,405.424 234.484,407.894 233.792,409.278C233.493,409.876 233.647,410.662 233.891,411.544C234.386,413.337 235.425,415.418 236.134,417.355C236.579,418.574 236.897,419.745 236.948,420.779C237.01,422.071 236.675,423.18 235.824,424.031C235.741,424.114 235.746,424.254 235.723,424.4C235.664,424.774 235.662,425.209 235.66,425.661C235.654,426.883 235.618,428.191 235.146,429.135C233.006,433.414 228.837,439.716 223.907,444.075C220.461,447.123 216.63,449.203 212.862,449.203C212.592,449.203 212.38,449.297 212.184,449.409ZM209.916,450.283C209.956,450.369 210.018,450.466 210.114,450.565C210.033,450.479 209.967,450.384 209.916,450.283ZM210.215,450.104L210.154,450.106C210.175,450.106 210.195,450.105 210.215,450.104Z" style="fill:rgb(105,186,201);"/>
        <path d="M187.818,355.08L187.873,355.255C188.075,355.886 187.727,356.562 187.097,356.765C186.466,356.967 185.79,356.619 185.587,355.988C185.029,354.249 184.905,353.165 184.995,352.626C185.112,351.923 185.491,351.572 185.885,351.395C186.29,351.212 186.949,351.178 187.713,351.695C189.203,352.701 192.285,356.758 194.907,360.691C195.274,361.242 195.125,361.988 194.574,362.355C194.023,362.723 193.277,362.573 192.91,362.022C191.177,359.423 189.265,356.732 187.818,355.08Z" style="fill:rgb(105,186,201);"/>
        <path d="M135.767,376.4C135.446,376.27 135.008,376.09 134.707,375.962C134.265,375.772 133.881,375.56 133.644,375.359C133.398,375.152 133.245,374.925 133.159,374.715C132.947,374.2 132.971,373.663 133.49,373.144C133.896,372.739 134.698,372.494 135.78,372.781C137.961,373.36 142.201,376.131 142.999,376.53C143.194,376.627 143.429,376.611 143.688,376.569C144.129,376.498 144.613,376.318 145.126,376.083C146.971,375.239 149.108,373.709 150.972,372.704C151.929,372.188 152.829,371.804 153.602,371.648C154.405,371.486 155.11,371.556 155.69,371.84C156.307,372.142 156.83,372.686 157.139,373.613C157.348,374.241 157.008,374.922 156.38,375.131C155.752,375.34 155.072,375 154.862,374.372C154.803,374.194 154.754,374.053 154.635,373.995C154.481,373.92 154.291,373.957 154.077,374.001C153.496,374.118 152.83,374.429 152.111,374.817C149.854,376.033 147.198,377.969 145.103,378.675C143.872,379.091 142.778,379.102 141.925,378.676C141.457,378.442 139.756,377.341 138.028,376.398C137.906,376.614 137.693,376.826 137.326,376.985C136.731,377.241 136.043,376.98 135.767,376.4Z" style="fill:rgb(105,186,201);"/>
        <path d="M141.521,396.15C141.395,395.831 141.041,394.897 140.96,394.296C140.848,393.468 141.023,392.688 141.613,392.098C143.878,389.834 146.675,390.422 149.549,392.137C151.657,393.395 153.818,395.243 155.768,396.381C156.752,396.955 157.635,397.393 158.417,397.198C159.123,397.021 159.586,396.557 160.013,396.073C160.408,395.623 160.77,395.144 161.166,394.72C162.032,393.79 163.041,393.1 164.575,393.1C165.237,393.1 165.775,393.638 165.775,394.3C165.775,394.963 165.237,395.5 164.575,395.5C163.912,395.5 163.471,395.806 163.084,396.188C162.708,396.559 162.377,396.997 162.022,397.417C161.233,398.352 160.337,399.192 158.999,399.526C157.893,399.803 156.619,399.527 155.263,398.839C153.634,398.013 151.827,396.583 150.011,395.309C148.663,394.363 147.317,393.498 146.033,393.155C145.06,392.894 144.137,392.985 143.334,393.772C143.332,393.8 143.328,393.857 143.33,393.892C143.336,393.989 143.356,394.087 143.38,394.186C143.51,394.72 143.764,395.241 143.863,395.57C144.119,396.421 143.756,396.972 143.447,397.209C142.922,397.612 142.168,397.514 141.764,396.988C141.573,396.74 141.495,396.44 141.521,396.15ZM141.933,395.348L141.928,395.353L141.933,395.348Z" style="fill:rgb(105,186,201);"/>
        <path d="M167.727,421.504C164.044,418.517 159.784,414.204 158.266,412.042C157.685,411.214 157.482,410.535 157.494,410.195C157.518,409.495 157.873,409.074 158.517,408.905C159.157,408.737 159.814,409.121 159.982,409.761C160.027,409.935 160.032,410.109 160.002,410.275C160.216,410.601 160.67,411.268 161.168,411.857C163.511,414.629 168.071,419.014 171.27,421.196C172.185,421.357 173.106,421.674 174.016,422.083C174.794,422.432 175.566,422.85 176.32,423.275C180.737,424.239 186.533,424.239 190.298,424.239C190.632,424.239 191.807,424.124 192.483,424.323C193.326,424.571 193.754,425.142 193.754,425.89C193.754,426.397 193.575,426.736 193.357,426.976C193.053,427.311 192.581,427.53 191.933,427.454C191.514,427.404 190.915,427.175 190.313,426.935C189.978,426.801 189.649,426.639 189.395,426.639C187.924,426.639 185.125,427.18 182.671,427.383C180.746,427.542 179.007,427.453 178.028,426.963C177.183,426.541 176.289,426.011 175.366,425.488C173.986,425.172 172.737,424.769 171.71,424.256C171.318,424.06 170.884,423.804 170.418,423.5C170.275,423.487 170.133,423.48 169.99,423.48L169.088,423.48C168.927,423.48 168.775,423.63 168.579,423.782C168.188,424.085 167.776,424.519 167.358,425.027C165.981,426.703 164.585,429.148 163.831,430.894C163.646,431.322 163.483,431.842 163.397,432.134C163.475,432.292 163.518,432.471 163.518,432.659C163.518,433.322 162.981,433.859 162.318,433.859C161.716,433.859 161.292,433.579 161.056,433.015C160.93,432.716 160.879,432.076 161.142,431.226C161.749,429.259 163.93,425.225 165.952,422.983C166.547,422.323 167.157,421.825 167.727,421.504ZM162.374,431.461C162.356,431.46 162.337,431.459 162.318,431.459L162.374,431.461Z" style="fill:rgb(105,186,201);"/>
        <path d="M241.939,271.435C242.074,271.42 242.37,271.38 242.594,271.317C243.272,271.124 244.121,270.764 245.073,270.297C249.959,267.904 257.408,262.765 258.947,261.226C259.471,260.702 263.087,256.578 263.804,255.887C264.602,255.12 265.448,255.666 265.535,255.74C265.756,255.928 265.96,256.209 265.96,256.659C265.96,259.286 264.191,267.002 264.673,271.396C264.741,272.012 264.851,272.551 265.042,272.972C265.179,273.275 265.348,273.51 265.662,273.51C266.325,273.51 266.862,274.048 266.862,274.71C266.862,275.373 266.325,275.91 265.662,275.91C263.761,275.91 262.581,274.33 262.288,271.658C261.941,268.496 262.721,263.641 263.207,260.124C262.079,261.371 260.901,262.666 260.644,262.923C258.795,264.773 248.845,271.587 244.06,273.358C243.012,273.746 242.152,273.892 241.589,273.827C241.172,273.779 240.843,273.634 240.59,273.432C240.459,273.406 240.11,273.334 239.951,273.29C239.615,273.196 239.363,273.039 239.204,272.882C238.802,272.488 238.608,271.992 238.947,271.301C239.239,270.707 239.958,270.461 240.553,270.753C240.703,270.827 240.831,270.928 240.933,271.047C241.112,271.087 241.322,271.137 241.451,271.184C241.636,271.25 241.8,271.336 241.939,271.435ZM241.143,272.262L241.13,272.294L241.135,272.283L241.143,272.262ZM241.167,272.194L241.154,272.233L241.163,272.209L241.167,272.194ZM241.185,272.135L241.177,272.16L241.184,272.137L241.185,272.135Z" style="fill:rgb(105,186,201);"/>
        <path d="M266.816,197.796C268.059,197.685 270.718,197.437 271.783,197.26C272.528,197.136 273.147,196.733 273.729,196.245C274.453,195.639 275.115,194.897 275.803,194.212C277.525,192.498 279.407,191.166 282.199,191.864C286.327,192.896 290.683,192.548 294.988,191.964C299.502,191.35 303.964,190.474 308.083,190.474C310.215,190.474 311.681,191.196 313.069,191.988C314.672,192.903 316.144,193.95 319.074,193.218C319.716,193.057 320.368,193.448 320.529,194.091C320.69,194.734 320.298,195.386 319.656,195.546C316.45,196.348 314.564,195.578 312.807,194.602C311.436,193.841 310.183,192.874 308.083,192.874C304.065,192.874 299.714,193.744 295.311,194.342C290.701,194.968 286.037,195.297 281.617,194.192C279.787,193.735 278.625,194.79 277.496,195.913C275.893,197.509 274.336,199.267 272.177,199.627C270.57,199.895 266.372,200.322 265.764,200.222C264.942,200.086 264.758,199.48 264.711,199.223C264.666,198.981 264.686,198.719 264.826,198.448C264.882,198.34 265.134,197.919 265.937,197.699C266.244,197.615 266.555,197.658 266.816,197.796Z" style="fill:rgb(105,186,201);"/>
        <path d="M382.153,148.647L382.093,148.649C381.431,148.649 380.893,148.111 380.893,147.449C380.893,146.233 381.541,145.824 381.86,145.715C382.225,145.59 382.796,145.57 383.349,146.124C383.672,146.447 384.153,147.233 384.647,148.238C385.619,150.217 386.776,153.115 387.143,153.955C389.521,156.197 394.998,158.157 398.719,159.397C400.226,159.9 402.839,159.75 404.564,159.57C405.622,159.421 406.334,159.343 406.334,159.343C406.982,159.273 407.568,159.734 407.652,160.38C407.737,161.027 407.29,161.622 406.645,161.722C406.645,161.722 406.158,161.793 405.397,161.873C403.513,162.116 399.863,162.663 397.883,163.455C395.023,164.599 391.568,165.312 388.328,166.419C385.347,167.439 382.541,168.788 380.708,171.306C380.319,171.841 379.567,171.96 379.032,171.57C378.496,171.18 378.378,170.429 378.768,169.894C380.893,166.974 384.095,165.33 387.552,164.148C390.691,163.075 394.038,162.383 396.83,161.29C392.805,159.896 387.578,157.79 385.306,155.518C385.267,155.479 385.005,155.073 384.716,154.38C384.204,153.154 383.194,150.679 382.362,149.033C382.297,148.906 382.226,148.774 382.153,148.647Z" style="fill:rgb(105,186,201);"/>
        <path d="M371.151,158.528C371.043,158.56 370.929,158.577 370.811,158.577C370.149,158.577 369.611,158.039 369.611,157.377C369.611,157.018 369.912,156.045 371.197,156.108C373.153,156.204 383.124,158.953 386.871,160.482C387.7,160.82 388.269,161.14 388.51,161.353C388.75,161.566 388.871,161.786 388.933,161.959C389.048,162.28 389.03,162.576 388.928,162.848C388.844,163.069 388.697,163.292 388.428,163.471C387.877,163.838 387.132,163.689 386.764,163.138C386.748,163.114 386.733,163.09 386.719,163.065C386.276,162.865 385.209,162.398 384.189,162.046C380.145,160.647 372.143,158.76 371.151,158.528ZM386.882,161.657L386.875,161.665L386.905,161.633L386.882,161.657ZM386.928,161.609L386.911,161.627L386.951,161.589L386.928,161.609ZM386.98,161.562L386.954,161.585L386.995,161.55L386.98,161.562ZM387.036,161.518L387.009,161.539L387.043,161.513L387.036,161.518ZM372.009,157.443C372.003,157.56 371.98,157.672 371.942,157.777C371.981,157.671 372.003,157.56 372.009,157.443ZM372.01,157.437C372.011,157.417 372.011,157.397 372.011,157.377L372.01,157.437Z" style="fill:rgb(105,186,201);"/>
        <path d="M358.383,170.832C358.63,171.043 358.759,171.318 358.781,171.651C358.787,171.747 358.84,172.351 358.213,172.753C358.09,172.833 357.73,173.013 357.354,173.051C356.935,173.093 356.517,172.985 356.184,172.701C355.914,172.472 355.621,172.09 355.621,171.367C355.621,170.695 356.013,169.857 356.752,169.055C357.992,167.709 360.209,166.3 361.249,165.78C365.218,163.796 370.206,164.676 374.261,165.69C374.904,165.85 375.295,166.502 375.134,167.145C374.974,167.787 374.322,168.179 373.679,168.018C370.14,167.133 365.786,166.195 362.322,167.927C361.562,168.307 360.061,169.241 358.982,170.222C358.758,170.426 358.553,170.63 358.383,170.832ZM356.837,170.789C356.503,171.032 356.389,171.322 356.39,171.602C356.408,171.424 356.467,171.247 356.57,171.086C356.644,170.969 356.734,170.87 356.837,170.789Z" style="fill:rgb(105,186,201);"/>
        <path d="M354.869,227.909C355.001,227.633 355.268,227.07 355.43,226.711C355.681,226.153 355.983,225.655 356.334,225.333C356.729,224.969 357.19,224.772 357.724,224.772C360.092,224.772 374.1,224.257 379.971,224.232C381.215,224.226 382.115,224.247 382.502,224.292C382.799,224.326 382.989,224.401 383.081,224.447C385.548,225.681 387.107,228.561 388.7,231.438C390.017,233.816 391.345,236.215 393.755,237.018C394.383,237.228 394.723,237.908 394.514,238.536C394.304,239.164 393.624,239.504 392.996,239.295C390.033,238.307 388.22,235.525 386.601,232.601C385.291,230.235 384.145,227.758 382.159,226.673C381.891,226.662 380.98,226.627 379.981,226.632C374.248,226.656 360.758,227.148 357.914,227.171C357.834,227.302 357.665,227.588 357.578,227.787C357.349,228.308 357.134,228.859 356.884,229.261C356.301,230.199 355.526,230.571 354.56,230.243C353.933,230.031 353.597,229.349 353.809,228.722C353.97,228.248 354.398,227.94 354.869,227.909Z" style="fill:rgb(105,186,201);"/>
    </g>
    <g transform="matrix(1,0,0,1,-15.5658,42.4435)">
        <rect x="321.762" y="6.537" width="227.861" height="552.038" style="fill:none;"/>
        <clipPath id="_clip1">
            <rect x="321.762" y="6.537" width="227.861" height="552.038"/>
        </clipPath>
        <g clip-path="url(#_clip1)">
            <g transform="matrix(0.50231,0,0,3.15471,511.73,-1459.79)">
                <rect x="71.455" y="464.807" width="3.982" height="174.988" style="fill:rgb(241,178,220);"/>
            </g>
            <g transform="matrix(0.50231,0,0,3.15471,502.466,-1459.79)">
                <rect x="71.455" y="464.807" width="3.982" height="174.988" style="fill:rgb(241,178,220);"/>
            </g>
            <g transform="matrix(0.50231,0,0,3.15471,484.223,-1459.79)">
                <rect x="71.455" y="464.807" width="3.982" height="174.988" style="fill:rgb(241,178,220);"/>
            </g>
            <g transform="matrix(0.50231,0,0,3.15471,444.133,-1459.79)">
                <rect x="71.455" y="464.807" width="3.982" height="174.988" style="fill:rgb(241,178,220);"/>
            </g>
            <g transform="matrix(0.50231,0,0,3.15471,411.064,-1459.79)">
                <rect x="71.455" y="464.807" width="3.982" height="174.988" style="fill:rgb(241,178,220);"/>
            </g>
            <g transform="matrix(0.50231,0,0,3.15471,386.863,-1459.79)">
                <rect x="71.455" y="464.807" width="3.982" height="174.988" style="fill:rgb(241,178,220);"/>
            </g>
            <g transform="matrix(0.50231,0,0,3.15471,373.26,-1459.79)">
                <rect x="71.455" y="464.807" width="3.982" height="174.988" style="fill:rgb(241,178,220);"/>
            </g>
            <g transform="matrix(0.50231,0,0,3.15471,367.081,-1459.79)">
                <rect x="71.455" y="464.807" width="3.982" height="174.988" style="fill:rgb(241,178,220);"/>
            </g>
            <g transform="matrix(0.50231,0,0,3.15471,349.413,-1459.79)">
                <rect x="71.455" y="464.807" width="3.982" height="174.988" style="fill:rgb(241,178,220);"/>
            </g>
            <g transform="matrix(0.50231,0,0,3.15471,343.077,-1459.79)">
                <rect x="71.455" y="464.807" width="3.982" height="174.988" style="fill:rgb(241,178,220);"/>
            </g>
            <g transform="matrix(0.50231,0,0,3.15471,336.342,-1459.79)">
                <rect x="71.455" y="464.807" width="3.982" height="174.988" style="fill:rgb(241,178,220);"/>
            </g>
            <g transform="matrix(0.50231,0,0,3.15471,330.062,-1459.79)">
                <rect x="71.455" y="464.807" width="3.982" height="174.988" style="fill:rgb(241,178,220);"/>
            </g>
            <g transform="matrix(0.50231,0,0,3.15471,315.98,-1459.79)">
                <rect x="71.455" y="464.807" width="3.982" height="174.988" style="fill:rgb(241,178,220);"/>
            </g>
            <g transform="matrix(0.50231,0,0,3.15471,308.794,-1459.79)">
                <rect x="71.455" y="464.807" width="3.982" height="174.988" style="fill:rgb(241,178,220);"/>
            </g>
            <g transform="matrix(0.50231,0,0,3.15471,306.218,-1459.79)">
                <rect x="71.455" y="464.807" width="3.982" height="174.988" style="fill:rgb(241,178,220);"/>
            </g>
            <g transform="matrix(0.50231,0,0,3.15471,300.259,-1459.79)">
                <rect x="71.455" y="464.807" width="3.982" height="174.988" style="fill:rgb(241,178,220);"/>
            </g>
            <g transform="matrix(0.50231,0,0,3.15471,292.038,-1459.79)">
                <rect x="71.455" y="464.807" width="3.982" height="174.988" style="fill:rgb(241,178,220);"/>
            </g>
            <g transform="matrix(0.50231,0,0,3.15471,288.996,-1459.79)">
                <rect x="71.455" y="464.807" width="3.982" height="174.988" style="fill:rgb(241,178,220);"/>
            </g>
            <g transform="matrix(0.50231,0,0,3.15471,285.869,-1459.79)">
                <rect x="71.455" y="464.807" width="3.982" height="174.988" style="fill:rgb(241,178,220);"/>
            </g>
        </g>
    </g>
    <g transform="matrix(1,0,0,1,419.165,566.198)">
        <text x="108.773px" y="51.343px" style="font-family:'ChalkboardSE-Bold', 'Chalkboard SE', cursive;font-weight:700;font-size:20px;fill:rgb(241,178,220);">1492</text>
    </g>
    <g transform="matrix(1,0,0,1,165.827,566.198)">
        <text x="108.773px" y="51.343px" style="font-family:'ChalkboardSE-Bold', 'Chalkboard SE', cursive;font-weight:700;font-size:20px;fill:rgb(241,178,220);">152</text>
    </g>
</svg>
