<?xml version="1.0" encoding="UTF-8" standalone="no"?>
<!DOCTYPE svg PUBLIC "-//W3C//DTD SVG 1.1//EN" "http://www.w3.org/Graphics/SVG/1.1/DTD/svg11.dtd">
<svg width="100%" height="100%" viewBox="0 0 816 1056" version="1.1" xmlns="http://www.w3.org/2000/svg" xmlns:xlink="http://www.w3.org/1999/xlink" xml:space="preserve" xmlns:serif="http://www.serif.com/" style="fill-rule:evenodd;clip-rule:evenodd;">
    <g transform="matrix(2.25253,0,0,2.25253,-128.107,-149.956)">
        <path d="M243.58,215.06C240.95,207.4 238.89,199.54 238,196C238,196 244.958,182.141 239,174C235.602,169.357 230,169 222,171C201.198,175.421 201.196,213.862 201,211C215,224 205,269 228.877,285.14C239.997,289 256.267,250.23 261.997,239L270.997,221C270.997,221 246.887,224.689 243.577,215.058L243.58,215.06Z" style="fill:rgb(230,230,230);fill-rule:nonzero;stroke:black;stroke-width:0.5px;"/>
    </g>
    <g transform="matrix(2.25253,0,0,2.25253,-128.107,-149.956)">
        <path d="M240,217C240,217 257.042,179.141 263,171C267,168 273.887,168.525 282,170C283.461,177.274 278.4,215.882 259,211C250.914,209.383 246.069,209.931 242,214M201,211C205.505,217.876 214.73,217.839 219.883,222.117L240.417,176.513C240.417,176.513 240.116,175.524 239.001,174C235.602,169.356 229.896,168.618 222.001,171L218.655,172.009L201.015,210.989" style="fill:rgb(230,230,230);fill-rule:nonzero;stroke:black;stroke-width:0.5px;"/>
    </g>
    <g transform="matrix(2.25253,0,0,2.25253,-127.807,-149.768)">
        <path d="M280.48,169.73C292,171 300,176 300,176L279,217C279,217 269,213 259,211L280.48,169.73ZM201,211C191.74,213.315 175,223 175,223L192,186C200.809,180.912 209.37,175.742 218.654,172.009L201.004,210.999" style="fill:rgb(230,230,230);fill-rule:nonzero;stroke:black;stroke-width:0.5px;"/>
    </g>
    <g transform="matrix(2.25253,0,0,2.25253,-128.107,-149.956)">
        <path d="M209,209.84C206.664,209.825 204,210.246 201,210.996C191.74,213.311 175,222.996 175,222.996L175,232.996C175,232.996 194,220.996 199,225.996C202,228.996 199,234.996 197,243.996C204,268.996 215,303.996 230,303.996C245,303.996 264,250.996 264,242.996C264,231.996 253,227.996 259,223.996C262.882,221.408 279,227.996 279,227.996L279,216.996C279,216.996 269,212.996 259,210.996C250.914,209.379 246.069,209.927 242,213.996C233,222.996 247,244.996 247,244.996C245,252.996 237,283.996 230,283.996C223,283.996 216,251.996 214,243.996C214,243.996 223.958,222.137 218,213.996C215.876,211.094 212.893,209.864 209,209.84Z" style="fill:rgb(230,230,230);fill-rule:nonzero;stroke:black;stroke-width:0.5px;"/>
    </g>
    <g transform="matrix(2.25253,0,0,2.25253,-128.107,-149.956)">
        <path d="M209,209.84C206.66,209.83 204,210.25 201,211C198.46,211.64 195.35,212.83 192.19,214.22L194.47,224.81C196.38,224.66 197.98,224.98 199,226C200.14,227.14 200.42,228.69 200.22,230.69L219.72,224.66C220.19,220.48 219.88,216.56 218,214C215.88,211.1 212.89,209.87 209,209.84ZM251.12,210.16C247.37,210.28 244.54,211.46 242,214C239.89,216.11 239.06,218.94 239,222.03L257.22,226.75C257.18,225.78 257.66,224.89 259,224C259.87,223.42 261.35,223.31 263.12,223.47L265.84,212.66C263.64,212.05 261.33,211.47 259,211C255.97,210.39 253.38,210.08 251.12,210.16Z" style="fill:rgb(230,230,230);fill-rule:nonzero;stroke:black;stroke-width:0.5px;"/>
    </g>
    <g transform="matrix(2.25253,0,0,2.25253,-128.107,-149.956)">
        <path d="M201.41,210.91C201.272,210.943 201.143,210.969 201.004,211.004C191.744,213.319 175.004,223.004 175.004,223.004L175.004,233.004C175.004,233.004 189.464,223.886 196.473,224.879L201.41,210.91ZM258.785,210.973L261.285,223.442C267.095,223.152 279.005,228.002 279.005,228.002L301.005,185.002L300.005,176.002L279.005,217.002C279.005,217.002 269.005,213.002 259.005,211.002C258.928,210.986 258.862,210.985 258.786,210.97L258.785,210.973Z" style="fill:rgb(230,230,230);fill-rule:nonzero;stroke:black;stroke-width:0.5px;"/>
    </g>
    <g transform="matrix(2.25253,0,0,2.25253,-140.49,-135.244)">
        <path d="M249,75C208.47,63.946 165.04,64.663 144,67C141.508,71.394 135,84 139,92C170.955,92 199.248,93.993 240,104C268.528,93.59 324.864,91.108 340,93C350,89 355,79 349,68C321,65 284,63 249,75Z" style="fill:rgb(230,230,230);fill-rule:nonzero;stroke:black;stroke-width:0.5px;"/>
    </g>
    <g transform="matrix(2.25253,0,0,2.25253,-140.49,-135.244)">
        <path d="M340,93C340,93 345,99 348,94C360,84 360,74 358,69C355.319,68.809 352.933,68.421 349,68L340,93ZM144,67C144,67 137.866,67.813 136,68C130,74 125,89 130,93C133.174,95.218 137.633,92.614 139,92L144,67Z" style="fill:rgb(230,230,230);fill-rule:nonzero;stroke:black;stroke-width:0.5px;"/>
    </g>
    <g transform="matrix(2.25253,0,0,2.25253,-140.49,-135.244)">
        <path d="M240,113C206.333,105.453 160.037,102.663 139,105C135,104 135,94 139,92C170.955,92 199.248,89.993 240,100C268.528,89.59 324.864,91.108 340,93C343,97 342,102 340,106C308.516,104.635 277.008,103.318 240,113Z" style="fill:rgb(230,230,230);fill-rule:nonzero;stroke:black;stroke-width:0.5px;"/>
    </g>
    <g transform="matrix(2.25253,0,0,2.25253,-140.49,-135.244)">
        <path d="M348,94C355,104 382,100 382,100L392,75C392,75 372,70 358,69L348,94ZM136,68C126,69 105,74 105,74L95,99C95,99 120,98 130,93L136,68Z" style="fill:rgb(230,230,230);fill-rule:nonzero;stroke:black;stroke-width:0.5px;"/>
    </g>
    <g transform="matrix(2.25253,0,0,2.25253,-140.49,-135.244)">
        <path d="M340,93C340,93 345.337,93.638 348,94C351.235,98.922 349.87,103.007 348,107C345.343,106.6 343.952,106.171 340,106L340,93ZM139,105C139,105 133.004,105.7 130,106C129.284,101.905 127.412,98.196 130,93C132.3,92.77 137.414,92 139,92L139,105Z" style="fill:rgb(230,230,230);fill-rule:nonzero;stroke:black;stroke-width:0.5px;"/>
    </g>
    <g transform="matrix(2.25253,0,0,2.25253,-140.49,-135.244)">
        <path d="M348,94C359.351,95.544 382,100 382,100L392,75L392,89L382,113C382,113 359.38,108.714 348,107L348,94ZM130,106C120,107 95,112 95,112L95,99C95,99 120,94 130,93L130,106Z" style="fill:rgb(230,230,230);fill-rule:nonzero;stroke:black;stroke-width:0.5px;"/>
    </g>
    <g transform="matrix(2.25253,0,0,2.25253,-141.616,-139.045)">
        <path d="M253.5,497.61L289.75,417.75C243.819,397.383 239.84,397.637 206.75,443.75C208.801,508.912 208.415,544.24 253.498,497.615L253.5,497.61Z" style="fill:rgb(230,230,230);fill-rule:nonzero;stroke:black;stroke-width:0.5px;"/>
    </g>
    <g transform="matrix(2.25253,0,0,2.25253,-141.616,-139.045)">
        <path d="M205.06,430.7C196.78,442.13 193,459.52 193,472C193,492 203.5,525 225.5,525C247.5,525 258,492 258,472C258,459.654 253.791,442.33 245.407,430.897L205.06,430.7ZM224.44,433C227.486,433 229.003,457.906 229.003,473C229.003,488.094 227.549,513 224.503,513C221.456,513 220.003,488.094 220.003,473C220.003,457.906 221.394,433 224.44,433Z" style="fill:rgb(230,230,230);fill-rule:nonzero;stroke:black;stroke-width:0.5px;"/>
    </g>
    <g transform="matrix(2.25253,0,0,2.25253,-141.616,-139.045)">
        <path d="M245.41,430.9L205.06,430.706L216.603,413.902C219.937,409.048 253.661,410.494 251.668,415.421L245.41,430.9Z" style="fill:rgb(230,230,230);fill-rule:nonzero;stroke:black;stroke-width:0.5px;"/>
    </g>
    <g transform="matrix(2.25253,0,0,2.25253,-141.616,-139.045)">
        <path d="M245.41,430.9C240.21,423.82 233.41,419 225,419C216.667,419 210.056,423.734 205.058,430.703L221.534,442.948C222.234,437.088 223.194,433.008 224.434,433.008C225.663,433.008 226.644,437.065 227.376,442.896L245.41,430.9Z" style="fill:rgb(230,230,230);fill-rule:nonzero;stroke:black;stroke-width:0.5px;"/>
    </g>
    <g transform="matrix(2.25253,0,0,2.25253,-141.616,-139.045)">
        <path d="M225,409C207,409 130,429 127,422L168,365C190.75,365 226,348 244,348C275.965,348 304.359,374 344,374C352,374 357,373 361,372C361,380 343,419 336,431C297.314,440.048 259.538,410.157 225,409Z" style="fill:rgb(230,230,230);fill-rule:nonzero;stroke:black;stroke-width:0.5px;"/>
    </g>
    <g transform="matrix(2.25253,0,0,2.25253,-141.616,-139.045)">
        <path d="M226,403C208,403 165,422 127,422L127,433C170,433 208,415 226,415C257.965,415 279.359,438 319,438C327,438 332,437 336,436C346.483,419.129 351.912,400.094 361,382L361,372L336,428C331,429 326.098,429 319,429C293.551,429 253.192,403 226,403Z" style="fill:rgb(230,230,230);fill-rule:nonzero;stroke:black;stroke-width:0.5px;"/>
    </g>
    <g id="e" transform="matrix(2.25253,0,0,2.25253,-141.616,-139.045)">
        <path d="M263,427.5C263,429.42 259.614,431 255.5,431C251.386,431 248,429.42 248,427.5C248,425.58 251.386,424 255.5,424C259.614,424 263,425.58 263,427.5Z" style="fill:rgb(230,230,230);fill-rule:nonzero;stroke:black;stroke-width:0.5px;"/>
    </g>
    <g id="e1" serif:id="e" transform="matrix(2.25253,0,0,2.25253,-107.828,-125.53)">
        <path d="M263,427.5C263,429.42 259.614,431 255.5,431C251.386,431 248,429.42 248,427.5C248,425.58 251.386,424 255.5,424C259.614,424 263,425.58 263,427.5Z" style="fill:rgb(230,230,230);fill-rule:nonzero;stroke:black;stroke-width:0.5px;"/>
    </g>
    <g id="e2" serif:id="e" transform="matrix(2.25253,0,0,2.25253,-130.354,-109.762)">
        <path d="M263,427.5C263,429.42 259.614,431 255.5,431C251.386,431 248,429.42 248,427.5C248,425.58 251.386,424 255.5,424C259.614,424 263,425.58 263,427.5Z" style="fill:rgb(230,230,230);fill-rule:nonzero;stroke:black;stroke-width:0.5px;"/>
    </g>
    <g id="e3" serif:id="e" transform="matrix(2.25253,0,0,2.25253,-85.303,-103.004)">
        <path d="M263,427.5C263,429.42 259.614,431 255.5,431C251.386,431 248,429.42 248,427.5C248,425.58 251.386,424 255.5,424C259.614,424 263,425.58 263,427.5Z" style="fill:rgb(230,230,230);fill-rule:nonzero;stroke:black;stroke-width:0.5px;"/>
    </g>
    <g id="e4" serif:id="e" transform="matrix(2.25253,0,0,2.25253,-60.5253,-89.4892)">
        <path d="M263,427.5C263,429.42 259.614,431 255.5,431C251.386,431 248,429.42 248,427.5C248,425.58 251.386,424 255.5,424C259.614,424 263,425.58 263,427.5Z" style="fill:rgb(230,230,230);fill-rule:nonzero;stroke:black;stroke-width:0.5px;"/>
    </g>
    <g id="e5" serif:id="e" transform="matrix(2.25253,0,0,2.25253,-47.0101,-107.509)">
        <path d="M263,427.5C263,429.42 259.614,431 255.5,431C251.386,431 248,429.42 248,427.5C248,425.58 251.386,424 255.5,424C259.614,424 263,425.58 263,427.5Z" style="fill:rgb(230,230,230);fill-rule:nonzero;stroke:black;stroke-width:0.5px;"/>
    </g>
    <g id="e6" serif:id="e" transform="matrix(2.25253,0,0,2.25253,-19.9798,-93.9943)">
        <path d="M263,427.5C263,429.42 259.614,431 255.5,431C251.386,431 248,429.42 248,427.5C248,425.58 251.386,424 255.5,424C259.614,424 263,425.58 263,427.5Z" style="fill:rgb(230,230,230);fill-rule:nonzero;stroke:black;stroke-width:0.5px;"/>
    </g>
    <g id="e7" serif:id="e" transform="matrix(2.25253,0,0,2.25253,-270.01,-141.297)">
        <path d="M263,427.5C263,429.42 259.614,431 255.5,431C251.386,431 248,429.42 248,427.5C248,425.58 251.386,424 255.5,424C259.614,424 263,425.58 263,427.5Z" style="fill:rgb(230,230,230);fill-rule:nonzero;stroke:black;stroke-width:0.5px;"/>
    </g>
    <g id="e8" serif:id="e" transform="matrix(2.25253,0,0,1.93074,-283.525,15.4141)">
        <path d="M263,427.5C263,429.42 259.614,431 255.5,431C251.386,431 248,429.42 248,427.5C248,425.58 251.386,424 255.5,424C259.614,424 263,425.58 263,427.5Z" style="fill:rgb(230,230,230);fill-rule:nonzero;stroke:black;stroke-width:0.5px;"/>
    </g>
    <g id="e9" serif:id="e" transform="matrix(2.02727,0,0,2.25253,-262.126,-125.53)">
        <path d="M263,427.5C263,429.42 259.614,431 255.5,431C251.386,431 248,429.42 248,427.5C248,425.58 251.386,424 255.5,424C259.614,424 263,425.58 263,427.5Z" style="fill:rgb(230,230,230);fill-rule:nonzero;stroke:black;stroke-width:0.5px;"/>
    </g>
    <g id="e10" serif:id="e" transform="matrix(2.02727,0,0,2.25253,-248.611,-105.257)">
        <path d="M263,427.5C263,429.42 259.614,431 255.5,431C251.386,431 248,429.42 248,427.5C248,425.58 251.386,424 255.5,424C259.614,424 263,425.58 263,427.5Z" style="fill:rgb(230,230,230);fill-rule:nonzero;stroke:black;stroke-width:0.5px;"/>
    </g>
    <g id="e11" serif:id="e" transform="matrix(2.09163,0,0,1.93074,-293.179,44.6969)">
        <path d="M263,427.5C263,429.42 259.614,431 255.5,431C251.386,431 248,429.42 248,427.5C248,425.58 251.386,424 255.5,424C259.614,424 263,425.58 263,427.5Z" style="fill:rgb(230,230,230);fill-rule:nonzero;stroke:black;stroke-width:0.5px;"/>
    </g>
    <g id="e12" serif:id="e" transform="matrix(2.1399,0,0,1.93074,-330.603,28.9292)">
        <path d="M263,427.5C263,429.42 259.614,431 255.5,431C251.386,431 248,429.42 248,427.5C248,425.58 251.386,424 255.5,424C259.614,424 263,425.58 263,427.5Z" style="fill:rgb(230,230,230);fill-rule:nonzero;stroke:black;stroke-width:0.5px;"/>
    </g>
    <g id="e13" serif:id="e" transform="matrix(2.09163,0,0,1.93074,-353.997,22.1717)">
        <path d="M263,427.5C263,429.42 259.614,431 255.5,431C251.386,431 248,429.42 248,427.5C248,425.58 251.386,424 255.5,424C259.614,424 263,425.58 263,427.5Z" style="fill:rgb(230,230,230);fill-rule:nonzero;stroke:black;stroke-width:0.5px;"/>
    </g>
    <g id="a" transform="matrix(2.25253,0,0,2.25253,-133.732,-140.493)">
        <path d="M240.5,338.5L233,331L237,331L237,312L244,312L244,331L248,331L240.5,338.5Z" style="fill-rule:nonzero;"/>
    </g>
    <g id="a1" serif:id="a" transform="matrix(2.25253,0,0,2.25253,-133.732,-559.664)">
        <path d="M240.5,338.5L233,331L237,331L237,312L244,312L244,331L248,331L240.5,338.5Z" style="fill-rule:nonzero;"/>
    </g>
</svg>
